<?xml version="1.0" encoding="utf-8"?>
<!-- Generator: Adobe Illustrator 19.2.1, SVG Export Plug-In . SVG Version: 6.00 Build 0)  -->
<svg version="1.0" id="图层_1" xmlns="http://www.w3.org/2000/svg" xmlns:xlink="http://www.w3.org/1999/xlink" x="0px" y="0px"
	 viewBox="0 0 200 200" style="enable-background:new 0 0 200 200;" xml:space="preserve">
<path d="M141.1,182c-1.3-0.4-5-1.5-8.1-2.7c-5-1.9-8-4.6-12-8.3c-4.3-4.1-7.6-9.4-10-13.4c-1.5-2.7-2-3.4,0.5-4.5
	c1.8-0.8,5.2-2.3,6.2-2.7c1.3-0.5,2.8-0.2,2.1-1.5c-0.8-1.4-2.8-1.4-3.6-0.8c-1,0.7-1.9,1.4-3,2c-1,0.6-2.5,1.4-3.8,1.9
	c0-1.2,0.1-2.1,0.1-2.9c0-3.1-0.1-6.2,0-9.2c0-1.4,0.9-3.4-0.7-4c-0.6-0.2-1.8-0.5-2.4-0.6c-0.4-0.1-1.1,0.2-1.3,0.8
	c0,0.4,0.4,0.8,0.7,1c1,0.7,1.3,1.4,1.5,2.8c0.3,2.6,0.3,7.9,0.1,11.7c-0.1,1.6-0.2,1.9-1.2,2.3c-1,0.4-2.8,1.4-3.8,1.7
	c-0.6,0.2-1,0.1-1.7,0.2c-0.5,0.1-1.1,0.4-1.3,0.7c-0.1,0.3,0.4,1.1,0.6,1.3c0.5,0.4,1.2,0.4,2.3,0.3c0.6-0.1,3-1.6,4.1-2.4
	c-1.3,6.3-4.1,13.6-6.5,19.1c-1.6,3.8-4.2,7.7-6.7,9.8c-0.5,0.4-2.1,1.5-1.1,2.2c0.6,0.4,1.5,0.8,2.9,0c0.9-0.5,1.7-1.6,2.4-2.5
	c3,1.2,4.9,2.1,7.2,4.2c1.5,1.3,1.5,3.5,1,5.1c-0.1,0.3,0.7,1.1,1.5,1.1c0.7,0,1.5-0.7,1.8-1c0.5-0.6,0.7-2.7,0.7-3.6
	c0-9.2,0-16.6,0-25.8c0-0.5-0.2-5.5-0.2-6.4c1,2.3,5.2,10.3,7.1,12.5c3.6,4.2,8.2,9.9,13.7,12.2c3.5,1.5,6.3,1.6,10.2,1.3
	C141.8,183.7,142.4,182.4,141.1,182z M106.9,184.7c0,0.9-0.5,1.4-1.3,1.1c-1.6-0.6-7.7-2.7-7.6-2.7c0.6-0.8,1.2-1.8,3.7-7.1
	c1.9-4,5.3-15.4,5.3-15.4C106.9,170,106.9,175.5,106.9,184.7z"/>
<path d="M93,156.7c0.9-0.4,3-1.1,3.9-1.5c0.6-0.2,1.9-0.7,0.4-1.5c-0.3-0.2-2.1-0.5-2.5-0.3c-1.2,0.6-2.9,1.5-4.3,1.9
	c0-3.5,0-9.2,0-12.3c0-2.2-2-2.5-3-2.6c-0.4,0-1.3-0.1-1.7,0c-0.4,0.1-0.8,0.4-0.9,0.8c-0.1,0.2,0.3,0.8,0.6,1
	c0.7,0.5,1.7,0.7,2.1,1.3c0.5,0.7,0.9,1.8,0.9,2.7c0.1,2.9,0,5.7,0.1,8.6c0,1.2-0.4,1.7-0.9,1.9c-3,1.4-9,3.5-11.2,3.6
	c-1.1,0-2,0.1-3.4,0.1c-2.7,0.1-0.5,2.4,1.9,2.9c1.8,0.4,3.5-0.7,4.2-1c2.2-0.9,4.4-1.7,6.6-2.7c1.8-0.8,1.8-0.2,1.4,1.2
	c-2.1,8.2-7.8,15.4-9.4,17.5c-2.6,3.7-7.3,7.2-9.7,8.5c-4.1,2.2-7.6,3-12,3.7c-0.4,0.1,1,2.2,2.5,2.7c2.6,0.8,4.3,0.3,6.8-0.8
	c4-1.8,6.8-4.3,9.9-7.5c3.7-3.8,10.6-13.6,13.4-24.6c0,7.7,0.1,16.6-0.3,23.5c-0.1,0.8-0.5,0.9-1.6,0.8c-1.1-0.2-2-0.3-4.2-1
	c-0.6-0.2-2.5-0.8-3.1-0.9c-0.5-0.1-0.7,0.1-0.7,0.1s-0.3,0.3,0.1,0.6c0.5,0.4,2,1,2.5,1.3c1.4,0.7,2.3,1,3.6,1.9
	c2.1,1.4,2.7,1.7,2.7,4.5c0,1.1-0.5,2.5-0.4,2.6c0.3,0.4,1.4,0.7,2.1,0.7c0.6-0.2,1-0.6,1.1-1c0.1-0.9,0.1-1.8,0.1-2.6
	c0-10.2,0.1-20.3,0-30.6C90.4,158.1,90.6,157.8,93,156.7z"/>
<path d="M87,130.5c0.6,0.5,2.2,0,2.7-1.5c0.9-2.4,0.7-5.2-1.9-7c-0.5-0.3-0.9-0.1-0.9,0c-0.1,0.1,0,0.8,0.3,1.2
	c1.4,1.8,0.5,3-0.3,4.6C86.3,128.7,86,129.6,87,130.5z"/>
<path d="M67,75.6c2.4,0.3,5.5,0,7.7-0.5s4.4-2.4,6.6-4.7c4-4.2,7-8.8,10.3-15c2.1-3.9,3.8-8.3,5.2-13.1c0.4-1.4,0.8-2.8,1.1-4.4
	c0.1,0.3,0.3,0.5,0.4,0.8c3.5,7.1,14.3,20,16.4,22c2.4,2.2,4.3,3.9,8.2,3.9c2.7,0,7.8-0.6,7.7-1.5c0-0.8-1.9-1.6-4.7-2
	c-1.3-0.2-3.8-1-5.4-1.7c-4.7-2.7-8.5-5.7-12.2-10.2c-2.6-3.2-4.8-6.7-7.2-10.1c-0.9-1.3-1.9-3.8-2.3-4.5c0.3-0.2,2.9-1.5,4-2.1
	c4-1.9,10.7-4.3,12.7-4.8c1.9-0.5,3.3-1.3,0.3-3c-0.4-0.2-1.8-1-2.3-0.8c-0.9,0.3-3.4,2.6-4.2,3.2c-1,0.6-6,3-10.7,5.3
	c0.3-1.6,0.4-2.6,0.5-3.7c0.7-6.1,0.5-12.3,0.7-17.6c-0.1-2,1.1-3.7-2.3-4.6C95.8,6.1,95,7,95,7s-0.1,0.8,0.3,1.3
	c0.7,0.8,1.6,1.5,1.7,4.8c0.1,3.2,0.2,8.2,0.1,11.4c-0.1,2.6-0.3,5.2-0.7,7.8c-0.2,1.3-0.8,1.3-1.3,1.6c-2.9,1.6-5.2,2.6-8.3,3.7
	c-1.6,0.6-3.9,0.7-5.7,0.7c-0.4,0-1.6-0.2-2-0.1c-0.8,0.1-1.8,1.2-1.9,1.7c-0.4,1.3,0.7,1.8,2.1,1.9c1.4,0.1,2.9-0.1,4.7-0.7
	c2.1-0.7,6.6-2.6,8.7-3.7c1.1-0.6,1.7-0.9,3.3-1.8c-0.6,3.1-1.6,6.6-3.2,10.4c-2.2,5.2-4.7,10.1-8.2,14.4c-3.9,4.8-7.6,9-13.3,11.9
	c-1.2,0.6-3.3,1.1-4.6,1.6c-0.3,0.1-0.5,0.6-0.6,1C66.3,75.1,66.8,75.5,67,75.6z"/>
<path d="M118.9,111.4c-1.5-2.8-4.4-12.6-5.3-21.5c-0.4-4.5-0.5-7.9-0.1-11.3c0.2-1.4,1-3.2,2.4-4.2c0.3-0.2,0.7-0.7,0.2-2.2
	s-1-1.8-1.8-1.5c-0.5,0.2-1,0.5-1.5,0.7c-3.2,1.6-6.4,3.1-9.6,4.7c-2.3,1.1-4.5,2.1-6.8,3.1c-2.4,1.1-6.9,2.1-9.4,2.6
	c-0.5,0.1,2.4,2.9,2.8,2.6c1.4-0.9,2.6-1.5,5.4-2.9c6.3-3.1,12-5.2,15.6-6.7c-0.7,11.6,0.9,22.2,2.4,27.6c2.1,7.1,4.5,14.2,8.9,20.3
	c1.3,1.8,2.9,4,4.7,5.3c2,1.5,3.4,2.4,5.9,3.1c0.7,0.2,2.2,0.3,2.9,0.3c0.3,0,0.9-0.4,0.9-0.7c0.1-2.1-1-3.1-1.1-3.2
	c-1.5-1.9-2.5-8.3-2.9-8.7c-0.3-0.3-1.1,5.4-1.8,5.7C126.9,123.1,122.3,117.7,118.9,111.4z"/>
<path d="M105.9,122c0.3,0.2,1.7,0.3,2-0.4c0.2-0.5,0.3-1.8-0.2-2.6c-0.8-1.2-1.7-1.5-2.9-1.8c-0.4-0.1-1.6-0.2-1.7,0.1
	c-0.1,0.3,0,0.9,0.3,1.2C104.3,119.7,104.9,121.2,105.9,122z"/>
<path d="M93.4,120.7c-0.2,0.1-0.4,0.5-0.4,0.6c0.3,1.4,0,3,1.4,4.1c0.6,0.5,1.6,0.4,1.7-0.3c0.2-1.2-0.3-2.8-2-4.1
	C93.9,120.9,93.6,120.6,93.4,120.7z"/>
<path d="M92.1,165.4c0.6,1.3,1.5,2.5,2.5,3.7c0.2,0.2,1.7,0.1,1.9-0.2c0.8-1.5-1.1-4.4-3.4-4.7C92.8,164.5,92,165.1,92.1,165.4z"/>
<path d="M101.1,122.2c0-0.4-0.2-1-0.5-1.4c-0.2-0.3-0.5-0.5-0.8-0.7c-0.6-0.4-1.5-1.5-1.7-0.1c-0.1,0.6,0.6,1.7,1.1,2.4
	c0.3,0.5,1,0.9,1.4,0.8C101,123.1,101.1,122.5,101.1,122.2z"/>
<path d="M104.3,130c3.1,0.3,4.9-0.5,6.4-3.2c1.7-2.9,2.8-6.3,3.7-10.6c0.3-1.3,0.9-2.8,0.9-4.2c0-1.6-1.3-2.1-2.8-2
	c-0.2,0-0.4,0-0.6,0.1c-4.3,1.7-13.7,4.5-19.4,6.1c0.5-0.7,0.6-2.7,0.6-3.9c0.2,0,0.4,0,0.6-0.1c2.5-0.9,4.5-1.7,7.1-2.4
	c-0.2,3,2.4,1.8,2.4-0.7c1.2-0.3,2.2-0.6,3.6-0.8c0.4-0.1,1.4-0.2,1.4-0.6c-0.1-0.4-0.9-1-1.3-1c-0.7-0.1-1.4-0.1-2.1,0.1
	s-1,0.4-1.7,0.6c0-0.6-0.1-1.1-0.1-1.7c0-0.5-0.3-5.5-0.1-7c0.2-1.9-0.1-3.9,0.4-5.5c0.2-0.7,0.5-0.8,0.8-1.1
	c0.3-0.3,1.1-0.8,0.9-1.5c-0.2-0.5-1.1-0.8-1.8-0.9c-0.5-0.1-1-0.2-1.4,0.2c-1.2,0.9-4.9,2.2-8,3.1c0.7-0.7,1.6-1.4,2.3-2.3
	c1-1,1.7-1.9-0.9-2.7c2.7-1.3,5.1-2.5,7.5-3.8c0.9-0.5,3.4-1.2,2.1-2.3c-1.1-1-2.2-0.4-3,0.2c-3.4,2.3-7.6,4.1-11.4,5.6
	c-0.4,0.2-0.7,0.7-0.1,1.2c0.4,0.2,0.9,0.7,1.3,0.7c0.7,0,1.3-0.7,2.4-0.8c-0.1,1.5-1.9,4.8-3.4,4.6c-0.6-0.1-0.9-0.5-1.5-0.3
	c-0.1-0.2-0.1,0.3,0.3,0.6c0.7,0.4,1.1,1.4,1.2,2.8c0.3,3.7,0.3,13.3-0.1,16.4c-0.3,2.1-0.6,3.5-0.2,3.9c-1.1,0.3-1.9,0.5-2.2,0.6
	c-2.1,0.6-4.3,0.8-4.4,1s1.3,2.3,2,2.5c0.7,0.1,6.3-2.5,7.2-2.8c3.2-1.1,13.7-4.5,17.5-5.4c1.9-0.5,2.1-0.1,1.8,2.2
	c-0.6,3.8-1.9,8.2-4.7,11c-1.2,1.3-2.6,1-4.3,0.8c-1-0.1-2.9-0.7-3-0.4c-0.2,0.5,0.3,1.2,1.2,2.1C102,129.2,103.5,130,104.3,130z
	 M93.7,94.7c1.4-0.6,4.8-1.7,6.1-1.9c0.4,0,1-0.2,1.1,0c0.2,0.3,0.2,1.7,0.1,3c-0.1,0.8-0.2,0.7-0.8,0.9c-1.5,0.7-3.7,1.2-5.2,1.6
	c-1.3,0.3-1.7,0.6-1.3,1.4c0.3,0.4,1,0.3,1.4,0.2c1.1-0.3,2.9-1,4-1.3c0.4-0.1,1.7-0.6,1.7-0.3l-0.1,3.8c0,0-6.4,1.7-7.3,2.2
	c-0.2,0.1,0.4,1.2,0.4,1.2s0.2,0.2,0.5,0.2s1.5-0.5,2-0.6c0.5-0.2,4.3-1.4,4.3-1.4v2.1c0,0.7,0,1.1,0,2c-2.6,0.8-5.2,1.6-7.8,2.4
	c-0.1-0.1-0.1-0.8-0.1-1.1c0,0-0.1-10.1-0.1-13.8C92.8,95.1,93.3,94.9,93.7,94.7z"/>
<path d="M66.6,135.5c-0.4,0.2-0.2,1.5,1.2,1.4c1.9-0.1,7-0.9,8.9-2.4c2.4-1.8,4-6.3,5.1-10c1.4-4.5,2.8-14.3,3.3-17.3
	c0.7-3.9,1.1-11.4,1.3-13.6c0.2-2.4,0.2-4.8,0-7c-0.1-1.3-1.2-2.4-2-2.6c-1.1-0.2-2.9-0.8-4.7-0.7c-0.4,0-1.7,0.9-0.4,1.7
	c0.9,0.6,2.1,0.7,2.9,1.7c1,1.5,1.4,4,1.6,7.2c0.5,11.3-2.8,29-9,35.8C72.3,132.5,68.5,134.5,66.6,135.5z"/>
</svg>
