<?xml version="1.0" encoding="utf-8"?>
<!-- Generator: Adobe Illustrator 19.2.1, SVG Export Plug-In . SVG Version: 6.00 Build 0)  -->
<svg version="1.1" id="XX" xmlns="http://www.w3.org/2000/svg" xmlns:xlink="http://www.w3.org/1999/xlink" x="0px" y="0px"
	 viewBox="0 0 300 300" style="enable-background:new 0 0 300 300;" xml:space="preserve">
<style type="text/css">
	.st0{fill:none;}
	.st1{fill:#FFFFFF;}
	.st2{fill:#871C21;}
	.st3{fill:#001833;}
</style>
<g>
	<path class="st0" d="M20.4,140c-0.3,3.3-0.4,6.6-0.4,10c0,3.4,0.1,6.7,0.4,10c-0.3-3.3-0.4-6.6-0.4-10
		C20,146.6,20.1,143.3,20.4,140z"/>
	<path class="st1" d="M144.7,170.6c-0.6-0.4-1.1-0.8-1.7-1.1l-5.7,15l-0.5-0.3l5.7-15.1c-1.2-0.7-2.6-1.1-4.4-2.4l-12.4,17l-0.5-0.4
		l12.4-17c-1.8-1.3-2.6-2.5-3.6-3.4l-12.5,10.1l-0.4-0.4l12.5-10.1c-0.5-0.4-1-0.8-1.6-1.2c-2.3-1.7-18.6,0.9-25.8,8.8
		c-7.2,7.9-6.7,15.7,9.3,27.3c15.9,11.6,23.5,9.6,28.8,0.4C149.6,188.6,147,172.3,144.7,170.6z"/>
	<path class="st1" d="M156.5,75c2.1,0.3,3-0.4,3.2-1.3c0.1-0.9,3.3-23.2,3.6-25.1c0.3-1.9,1.3-3.5,1.8-3.5c0.5,0.1,1,1.9,0.8,3.8
		c-0.3,1.9-3.5,24.2-3.6,25.1c-0.1,0.9,0.6,1.8,2.7,2.1c1.9,0.3,3-0.2,3.3-1.3c0.3-1.1,5.6-22.1,6.5-28.1c1-6.8-3.4-15.9-7.5-16.5
		c-4-0.6-10.9,6.9-11.8,13.7c-0.8,6.1-1.6,27.7-1.7,28.8C153.7,74,154.6,74.7,156.5,75z"/>
	<path class="st1" d="M196,90.4c1.6,1.4,2.8,1.3,3.4,0.6c0.6-0.7,15.4-17.7,16.6-19.2c1.3-1.5,3-2.3,3.4-1.9
		c0.4,0.3-0.2,2.2-1.4,3.6c-1.3,1.5-16,18.5-16.6,19.2c-0.6,0.7-0.5,1.9,1.1,3.2c1.5,1.3,2.6,1.5,3.4,0.7
		c0.8-0.8,16.6-15.5,20.7-20.2c4.5-5.2,5.7-15.2,2.6-17.9c-3.1-2.7-12.9-0.1-17.3,5.2c-4,4.7-16.3,22.4-17,23.4
		C194.2,88.1,194.5,89.2,196,90.4z"/>
	<path class="st1" d="M168.2,225.1c-0.3-1.1-1.3-1.6-3.3-1.3c-2.1,0.3-2.8,1.2-2.7,2.1c0.1,0.9,3.3,23.2,3.6,25.1
		c0.3,1.9-0.3,3.8-0.8,3.8c-0.5,0.1-1.5-1.5-1.8-3.5c-0.3-1.9-3.5-24.2-3.6-25.1c-0.1-0.9-1.1-1.6-3.2-1.3c-1.9,0.3-2.8,1-2.8,2.2
		c0.1,1.2,0.9,22.8,1.7,28.8c0.9,6.8,7.8,14.3,11.8,13.7c4-0.6,8.5-9.7,7.5-16.5C173.7,247.1,168.4,226.2,168.2,225.1z"/>
	<path class="st1" d="M143.5,225c-2.1-0.3-3,0.4-3.2,1.3c-0.1,0.9-3.3,23.2-3.6,25.1c-0.3,1.9-1.3,3.5-1.8,3.5
		c-0.5-0.1-1-1.9-0.8-3.8c0.3-1.9,3.5-24.2,3.6-25.1c0.1-0.9-0.6-1.8-2.7-2.1c-1.9-0.3-3,0.2-3.3,1.3c-0.3,1.1-5.6,22.1-6.5,28.1
		c-1,6.8,3.4,15.9,7.5,16.5c4,0.6,10.9-6.9,11.8-13.7c0.8-6.1,1.6-27.7,1.7-28.8C146.3,226,145.4,225.3,143.5,225z"/>
	<path class="st1" d="M168,161.4c-0.6,0.4-1.1,0.8-1.6,1.3l12.5,10.1l-0.4,0.4L166,163c-1,1-1.9,2.1-3.6,3.4l12.4,17l-0.5,0.4
		l-12.4-17c-1.8,1.3-3.2,1.7-4.4,2.4l5.7,15l-0.5,0.3l-5.7-15c-0.5,0.3-1.1,0.7-1.7,1.1c-2.3,1.7-4.8,18,0.4,27.2
		c5.3,9.3,12.9,11.2,28.8-0.4c15.9-11.6,16.4-19.4,9.3-27.3C186.6,162.3,170.3,159.7,168,161.4z"/>
	<path class="st1" d="M166,150c0-8.8-7.2-16-16-16c-8.8,0-16,7.2-16,16s7.2,16,16,16C158.8,166,166,158.8,166,150z M150,158.2
		c-4.5,0-8.2-3.7-8.2-8.2s3.7-8.2,8.2-8.2s8.2,3.7,8.2,8.2S154.5,158.2,150,158.2z"/>
	<path class="st1" d="M221.7,121.3c-1.1,0.4-1.4,1.5-0.8,3.4c0.6,2,1.6,2.6,2.5,2.3c0.9-0.3,22.5-6.6,24.4-7.2
		c1.9-0.5,3.8-0.3,3.9,0.2c0.1,0.5-1.3,1.7-3.2,2.3c-1.9,0.5-23.5,6.9-24.4,7.2c-0.9,0.3-1.4,1.3-0.8,3.3c0.5,1.9,1.4,2.7,2.5,2.4
		c1.1-0.2,22.4-4.1,28.3-5.8c6.6-1.9,13-9.7,11.9-13.6c-1.1-3.9-10.8-7-17.4-5C242.8,112.7,222.8,120.9,221.7,121.3z"/>
	<path class="st1" d="M244.2,199c-5.2-3.3-24.5-13-25.5-13.5c-1-0.5-2.1,0-3.1,1.6c-1.1,1.8-0.9,2.9-0.1,3.4
		c0.8,0.5,19.7,12.7,21.4,13.7s2.7,2.7,2.4,3.1c-0.3,0.4-2.2,0.2-3.8-0.9c-1.6-1-20.6-13.2-21.4-13.7c-0.8-0.5-1.9-0.3-3.1,1.5
		c-1,1.6-1.1,2.8-0.2,3.5c0.9,0.7,17.8,14.3,22.9,17.6c5.8,3.8,15.9,3.5,18.1,0.1C253.9,211.9,250,202.6,244.2,199z"/>
	<path class="st1" d="M205.9,203.3c-0.8-0.8-2-0.6-3.4,0.7c-1.6,1.4-1.7,2.5-1.1,3.2c0.6,0.7,15.4,17.7,16.6,19.2
		c1.3,1.5,1.8,3.3,1.4,3.6c-0.4,0.3-2.1-0.5-3.4-1.9c-1.3-1.5-16-18.5-16.6-19.2c-0.6-0.7-1.8-0.8-3.4,0.6c-1.5,1.3-1.8,2.4-1.2,3.3
		c0.7,0.9,13,18.7,17,23.4c4.5,5.2,14.2,7.8,17.3,5.2c3.1-2.7,1.9-12.7-2.6-17.9C222.5,218.9,206.7,204.2,205.9,203.3z"/>
	<path class="st1" d="M188.6,216.9c-0.6-1-1.7-1.1-3.5-0.3c-1.9,0.9-2.3,2-2,2.8c0.4,0.8,9.7,21.3,10.5,23.1
		c0.8,1.8,0.8,3.7,0.3,3.9c-0.5,0.2-1.9-1-2.7-2.8c-0.8-1.8-10.2-22.3-10.5-23.1c-0.4-0.8-1.5-1.2-3.4-0.4c-1.8,0.8-2.4,1.8-2,2.8
		c0.4,1.1,7.2,21.6,9.7,27.2c2.8,6.3,11.5,11.5,15.2,9.8c3.7-1.7,5.4-11.7,2.5-17.9C200.2,236.5,189.1,217.9,188.6,216.9z"/>
	<path class="st1" d="M226.9,142.7c-1.2,0.1-1.7,1.1-1.7,3c0,2.1,0.8,2.9,1.7,2.9s23.5,0,25.4,0c1.9,0,3.7,0.8,3.7,1.3
		c0,0.5-1.7,1.3-3.7,1.3c-1.9,0-24.5,0-25.4,0s-1.7,0.8-1.7,2.9c0,1.9,0.6,2.9,1.7,3c1.2,0.1,22.6,2.4,28.8,2.4
		c6.9,0,15.2-5.6,15.2-9.7c0-4.1-8.4-9.8-15.2-9.7C249.5,140.3,228,142.6,226.9,142.7z"/>
	<path class="st1" d="M166.4,136.4c0.2,0.7,0.5,1.3,0.7,1.9l13.5-8.8l0.3,0.5l-13.5,8.8c0.6,1.3,1.4,2.4,2.1,4.5l20-6.5l0.2,0.6
		l-20,6.5c0.7,2.1,0.6,3.5,0.9,4.9l16.1-0.8l0.1,0.6l-16.1,0.8c0.1,0.6,0.3,1.2,0.5,1.9c0.9,2.7,15.6,10.2,26,8
		c10.4-2.1,14.6-8.8,8.6-27.5c-6.1-18.7-13.4-21.6-23.1-17.2C173,119,165.5,133.7,166.4,136.4z"/>
	<path class="st1" d="M210.9,105.8c1.1,1.8,2.3,2,3.1,1.5c0.8-0.5,19.7-12.7,21.4-13.7c1.6-1,3.5-1.3,3.8-0.9c0.3,0.4-0.8,2-2.4,3.1
		c-1.6,1-20.6,13.2-21.4,13.7c-0.8,0.5-1,1.6,0.1,3.4c1,1.6,2.1,2.2,3.1,1.6c1-0.5,20.3-10.2,25.5-13.5c5.8-3.7,9.8-13,7.6-16.4
		c-2.2-3.4-12.3-3.7-18.1,0.1c-5.1,3.4-22,16.9-22.9,17.6C209.8,103,209.9,104.2,210.9,105.8z"/>
	<path class="st1" d="M254.1,170.4c-5.9-1.7-27.2-5.5-28.3-5.8c-1.1-0.2-2,0.6-2.5,2.4c-0.6,2,0,3.1,0.8,3.3
		c0.9,0.3,22.5,6.6,24.4,7.2c1.9,0.5,3.3,1.8,3.2,2.3c-0.1,0.5-2,0.8-3.9,0.2c-1.9-0.5-23.5-6.9-24.4-7.2c-0.9-0.3-1.9,0.3-2.5,2.3
		c-0.5,1.9-0.3,3,0.8,3.4c1.1,0.4,21.1,8.7,26.9,10.5c6.6,2,16.2-1.1,17.4-5C267.2,180.2,260.8,172.3,254.1,170.4z"/>
	<path class="st1" d="M177.4,79.9c1.9,0.9,3,0.5,3.4-0.4c0.4-0.8,9.7-21.3,10.5-23.1c0.8-1.8,2.3-3,2.7-2.8c0.5,0.2,0.5,2.1-0.3,3.9
		c-0.8,1.8-10.2,22.3-10.5,23.1c-0.4,0.8,0,1.9,2,2.8c1.8,0.8,2.9,0.7,3.5-0.3c0.6-1,11.6-19.6,14.2-25.2c2.9-6.3,1.2-16.2-2.5-17.9
		c-3.7-1.7-12.4,3.5-15.2,9.8c-2.5,5.6-9.3,26.1-9.7,27.2C174.9,78.1,175.6,79.1,177.4,79.9z"/>
	<path class="st1" d="M78.3,178.7c1.1-0.4,1.4-1.5,0.8-3.4c-0.6-2-1.6-2.6-2.5-2.3c-0.9,0.3-22.5,6.6-24.4,7.2
		c-1.9,0.5-3.8,0.3-3.9-0.2c-0.1-0.5,1.3-1.7,3.2-2.3c1.9-0.5,23.5-6.9,24.4-7.2c0.9-0.3,1.4-1.3,0.8-3.3c-0.5-1.9-1.4-2.7-2.5-2.4
		c-1.1,0.2-22.4,4.1-28.3,5.8c-6.6,1.9-13,9.7-11.9,13.6c1.1,3.9,10.8,7,17.4,5C57.2,187.3,77.2,179.1,78.3,178.7z"/>
	<path class="st1" d="M89.3,197.7c0.9-0.7,0.9-1.9-0.2-3.5c-1.1-1.8-2.3-2-3.1-1.5c-0.8,0.5-19.7,12.7-21.4,13.7
		c-1.6,1-3.5,1.3-3.8,0.9c-0.3-0.4,0.8-2,2.4-3.1c1.6-1,20.6-13.2,21.4-13.7c0.8-0.5,1-1.6-0.1-3.4c-1-1.6-2.1-2.2-3.1-1.6
		c-1,0.5-20.3,10.2-25.5,13.5c-5.8,3.7-9.8,13-7.6,16.4c2.2,3.4,12.3,3.7,18.1-0.1C71.5,212,88.3,198.4,89.3,197.7z"/>
	<path class="st1" d="M73.1,157.3c1.2-0.1,1.7-1.1,1.7-3c0-2.1-0.8-2.9-1.7-2.9c-0.9,0-23.5,0-25.4,0c-1.9,0-3.7-0.8-3.7-1.3
		c0-0.5,1.7-1.3,3.7-1.3c1.9,0,24.5,0,25.4,0c0.9,0,1.7-0.8,1.7-2.9c0-1.9-0.6-2.9-1.7-3c-1.2-0.1-22.6-2.4-28.8-2.4
		c-6.9,0-15.2,5.6-15.2,9.7c0,4.1,8.4,9.8,15.2,9.7C50.5,159.7,72,157.4,73.1,157.3z"/>
	<path class="st1" d="M104,209.6c-1.6-1.4-2.8-1.3-3.4-0.6c-0.6,0.7-15.4,17.7-16.6,19.2c-1.3,1.5-3,2.3-3.4,1.9
		c-0.4-0.3,0.2-2.2,1.4-3.6c1.3-1.5,16-18.5,16.6-19.2c0.6-0.7,0.5-1.9-1.1-3.2c-1.5-1.3-2.6-1.5-3.4-0.7
		c-0.8,0.8-16.6,15.5-20.7,20.2c-4.6,5.2-5.7,15.2-2.6,17.9c3.1,2.7,12.9,0.1,17.3-5.2c4-4.7,16.3-22.4,17-23.4
		C105.8,211.9,105.5,210.8,104,209.6z"/>
	<path class="st1" d="M45.9,129.6c5.9,1.7,27.2,5.5,28.3,5.8c1.1,0.2,2-0.6,2.5-2.4c0.6-2,0-3.1-0.8-3.3c-0.9-0.3-22.5-6.6-24.4-7.2
		c-1.9-0.5-3.3-1.8-3.2-2.3c0.1-0.5,2-0.8,3.9-0.2c1.9,0.5,23.5,6.9,24.4,7.2c0.9,0.3,1.9-0.3,2.5-2.3c0.5-1.9,0.3-3-0.8-3.4
		c-1.1-0.4-21.1-8.7-26.9-10.4c-6.6-2-16.2,1.1-17.4,5C32.8,119.8,39.2,127.7,45.9,129.6z"/>
	<path class="st1" d="M122.6,220.1c-1.9-0.9-3-0.5-3.4,0.4c-0.4,0.8-9.7,21.3-10.5,23.1c-0.8,1.8-2.3,3-2.7,2.8
		c-0.5-0.2-0.5-2.1,0.3-3.9c0.8-1.8,10.2-22.3,10.5-23.1c0.4-0.8,0-1.9-2-2.8c-1.8-0.8-2.9-0.7-3.5,0.3c-0.6,1-11.6,19.6-14.2,25.2
		c-2.9,6.3-1.2,16.2,2.5,17.9c3.7,1.7,12.4-3.5,15.2-9.8c2.5-5.6,9.3-26.1,9.7-27.2C125.1,221.9,124.4,220.9,122.6,220.1z"/>
	<path class="st1" d="M150,280c71.7,0,130-58.3,130-130S221.7,20,150,20C81.7,20,25.5,73,20.4,140c-0.3,3.3-0.4,6.6-0.4,10
		c0,3.4,0.1,6.7,0.4,10C25.5,227,81.7,280,150,280z M150,24.6c69.2,0,125.4,56.3,125.4,125.4c0,69.2-56.3,125.4-125.4,125.4
		c-69.2,0-125.4-56.3-125.4-125.4C24.6,80.8,80.8,24.6,150,24.6z"/>
	<path class="st1" d="M94.1,96.7c0.8,0.8,2,0.6,3.4-0.7c1.6-1.4,1.7-2.5,1.1-3.2C98.1,92,83.3,75,82,73.6c-1.3-1.5-1.8-3.3-1.4-3.6
		c0.4-0.3,2.1,0.5,3.4,1.9c1.3,1.5,16,18.5,16.6,19.2c0.6,0.7,1.8,0.8,3.4-0.6c1.5-1.3,1.8-2.4,1.2-3.3c-0.7-0.9-13-18.7-17-23.4
		c-4.5-5.2-14.3-7.8-17.3-5.2c-3.1,2.7-1.9,12.7,2.6,17.9C77.5,81.1,93.3,95.9,94.1,96.7z"/>
	<path class="st1" d="M82.2,150c0,37.4,30.3,67.8,67.8,67.8c37.4,0,67.8-30.3,67.8-67.8c0-37.4-30.3-67.8-67.8-67.8
		C112.6,82.2,82.2,112.6,82.2,150z M150,85.9c35.4,0,64.1,28.7,64.1,64.1s-28.7,64.1-64.1,64.1c-35.4,0-64.1-28.7-64.1-64.1
		S114.6,85.9,150,85.9z"/>
	<path class="st1" d="M102.7,159.4c10.4,2.1,25.2-5.3,26-8c0.2-0.7,0.4-1.3,0.5-1.9l-16.1-0.8l0.1-0.6l16.1,0.8
		c0.3-1.4,0.3-2.8,0.9-4.9l-20-6.5l0.2-0.6l20,6.5c0.7-2.1,1.6-3.2,2.1-4.5l-13.5-8.8l0.3-0.5l13.5,8.8c0.2-0.6,0.5-1.2,0.7-1.9
		c0.9-2.7-6.6-17.4-16.3-21.8c-9.7-4.4-17-1.5-23.1,17.2C88.1,150.6,92.3,157.2,102.7,159.4z"/>
	<path class="st1" d="M131.8,74.9c0.3,1.1,1.3,1.6,3.3,1.3c2.1-0.3,2.8-1.2,2.7-2.1c-0.1-0.9-3.3-23.2-3.6-25.1
		c-0.3-1.9,0.3-3.8,0.8-3.8c0.5-0.1,1.5,1.5,1.8,3.5c0.3,1.9,3.5,24.2,3.6,25.1c0.1,0.9,1.1,1.6,3.2,1.3c1.9-0.3,2.8-1,2.8-2.2
		c-0.1-1.2-0.8-22.8-1.7-28.8c-0.9-6.8-7.8-14.3-11.8-13.7c-4,0.6-8.5,9.7-7.5,16.5C126.3,52.9,131.6,73.8,131.8,74.9z"/>
	<path class="st1" d="M55.8,101.1c5.2,3.3,24.5,13,25.5,13.5c1,0.5,2.1,0,3.1-1.6c1.1-1.8,0.9-2.9,0.1-3.4
		c-0.8-0.5-19.7-12.7-21.4-13.7c-1.6-1-2.7-2.7-2.4-3.1c0.3-0.4,2.2-0.2,3.8,0.9c1.6,1,20.6,13.2,21.4,13.7c0.8,0.5,1.9,0.3,3.1-1.5
		c1-1.6,1.1-2.8,0.2-3.5c-0.9-0.7-17.8-14.3-22.9-17.6c-5.8-3.8-15.9-3.5-18.1-0.1C46.1,88.1,50,97.4,55.8,101.1z"/>
	<path class="st1" d="M111.4,83.1c0.6,1,1.7,1.1,3.5,0.3c1.9-0.9,2.3-2,2-2.8c-0.4-0.8-9.7-21.3-10.5-23.1c-0.8-1.8-0.8-3.7-0.3-3.9
		c0.5-0.2,1.9,1,2.7,2.8c0.8,1.8,10.2,22.3,10.5,23.1c0.4,0.8,1.5,1.2,3.4,0.4c1.8-0.8,2.4-1.8,2-2.8c-0.4-1.1-7.2-21.6-9.7-27.2
		c-2.8-6.3-11.5-11.5-15.2-9.8c-3.7,1.7-5.4,11.7-2.5,17.9C99.8,63.5,110.9,82.1,111.4,83.1z"/>
	<path class="st1" d="M142.1,130.2c0.7,0,1.4,0,2-0.1l-4.2-15.5l0.6-0.1l4.2,15.5c1.4-0.2,2.7-0.6,5-0.6v-21.1h0.6v21.1
		c2.2,0,3.6,0.5,5,0.6l4.2-15.5l0.6,0.1l-4.2,15.5c0.6,0.1,1.2,0.1,2,0.1c2.9,0,14.5-11.7,15.7-22.3c1.2-10.6-3.8-16.6-23.5-16.6
		s-24.7,6-23.5,16.6C127.7,118.5,139.3,130.2,142.1,130.2z"/>
	<path class="st2" d="M150,214.1c35.4,0,64.1-28.7,64.1-64.1S185.4,85.9,150,85.9c-35.4,0-64.1,28.7-64.1,64.1
		S114.6,214.1,150,214.1z M144.3,197.9c-5.3,9.3-12.9,11.2-28.8-0.4c-15.9-11.6-16.4-19.4-9.3-27.3c7.2-7.9,23.5-10.5,25.8-8.8
		c0.6,0.4,1.1,0.8,1.6,1.2l-12.5,10.1l0.4,0.4L134,163c1,1,1.9,2.1,3.6,3.4l-12.4,17l0.5,0.4l12.4-17c1.8,1.3,3.2,1.7,4.4,2.4
		l-5.7,15.1l0.5,0.3l5.7-15c0.5,0.3,1.1,0.7,1.7,1.1C147,172.3,149.6,188.6,144.3,197.9z M134,150c0-8.8,7.2-16,16-16
		c8.8,0,16,7.2,16,16s-7.2,16-16,16C141.2,166,134,158.8,134,150z M184.5,197.5c-15.9,11.6-23.6,9.6-28.8,0.4
		c-5.3-9.3-2.7-25.6-0.4-27.2c0.6-0.4,1.1-0.8,1.7-1.1l5.7,15l0.5-0.3l-5.7-15c1.2-0.7,2.6-1.1,4.4-2.4l12.4,17l0.5-0.4l-12.4-17
		c1.8-1.3,2.6-2.5,3.6-3.4l12.5,10.1l0.4-0.4l-12.5-10.1c0.5-0.4,1-0.8,1.6-1.3c2.3-1.7,18.6,0.9,25.8,8.8
		C200.9,178.1,200.4,185.9,184.5,197.5z M182.7,114.6c9.7-4.4,17-1.5,23.1,17.2c6.1,18.7,1.9,25.4-8.6,27.5c-10.4,2.1-25.2-5.3-26-8
		c-0.2-0.7-0.4-1.3-0.5-1.9l16.1-0.8l-0.1-0.6l-16.1,0.8c-0.3-1.4-0.3-2.8-0.9-4.9l20-6.5l-0.2-0.6l-20,6.5
		c-0.7-2.1-1.6-3.2-2.1-4.5l13.5-8.8l-0.3-0.5l-13.5,8.8c-0.2-0.6-0.5-1.2-0.7-1.9C165.5,133.7,173,119,182.7,114.6z M150,91.3
		c19.7,0,24.7,6,23.5,16.6c-1.2,10.6-12.8,22.3-15.7,22.3c-0.7,0-1.4,0-2-0.1l4.2-15.5l-0.6-0.1l-4.2,15.5c-1.4-0.2-2.7-0.6-5-0.6
		v-21.1h-0.6v21.1c-2.2,0-3.6,0.5-5,0.6l-4.2-15.5l-0.6,0.1l4.2,15.5c-0.6,0.1-1.2,0.1-2,0.1c-2.8,0-14.5-11.7-15.7-22.3
		C125.3,97.3,130.3,91.3,150,91.3z M117.3,114.6c9.7,4.4,17.2,19.1,16.3,21.8c-0.2,0.7-0.5,1.3-0.7,1.9l-13.5-8.8l-0.3,0.5l13.5,8.8
		c-0.6,1.3-1.4,2.4-2.1,4.5l-20-6.5l-0.2,0.6l20,6.5c-0.7,2.1-0.6,3.5-0.9,4.9l-16.1-0.8l-0.1,0.6l16.1,0.8
		c-0.1,0.6-0.3,1.2-0.5,1.9c-0.9,2.7-15.6,10.2-26,8c-10.4-2.1-14.6-8.8-8.6-27.5C100.3,113.1,107.6,110.2,117.3,114.6z"/>
	<circle class="st2" cx="150" cy="150" r="8.2"/>
	<path class="st3" d="M150,275.4c69.2,0,125.4-56.3,125.4-125.4c0-69.2-56.3-125.4-125.4-125.4C80.8,24.6,24.6,80.8,24.6,150
		C24.6,219.2,80.8,275.4,150,275.4z M70.8,241.4c-3.1-2.7-1.9-12.7,2.6-17.9c4-4.6,19.9-19.3,20.7-20.2c0.8-0.8,2-0.6,3.4,0.7
		c1.6,1.4,1.7,2.5,1.1,3.2C98.1,208,83.3,225,82,226.4c-1.3,1.5-1.8,3.3-1.4,3.6c0.4,0.3,2.1-0.5,3.4-1.9c1.3-1.5,16-18.5,16.6-19.2
		c0.6-0.7,1.8-0.8,3.4,0.6c1.5,1.3,1.8,2.4,1.2,3.3c-0.7,0.9-13,18.7-17,23.4C83.7,241.5,73.9,244.1,70.8,241.4z M124.7,223
		c-0.4,1.1-7.2,21.6-9.7,27.2c-2.8,6.3-11.5,11.5-15.2,9.8c-3.7-1.7-5.4-11.7-2.5-17.9c2.6-5.6,13.6-24.2,14.2-25.2
		c0.6-1,1.7-1.1,3.5-0.3c1.9,0.9,2.3,2,2,2.8c-0.4,0.8-9.7,21.3-10.5,23.1c-0.8,1.8-0.8,3.7-0.3,3.9c0.5,0.2,1.9-1,2.7-2.8
		c0.8-1.8,10.2-22.3,10.5-23.1c0.4-0.8,1.5-1.2,3.4-0.4C124.4,220.9,125.1,221.9,124.7,223z M144.6,256c-0.9,6.8-7.8,14.3-11.8,13.7
		c-4-0.6-8.5-9.7-7.5-16.5c0.9-6.1,6.3-27,6.5-28.1c0.3-1.1,1.3-1.6,3.3-1.3c2.1,0.3,2.8,1.2,2.7,2.1c-0.1,0.9-3.3,23.2-3.6,25.1
		c-0.3,1.9,0.3,3.8,0.8,3.8c0.5,0.1,1.5-1.5,1.8-3.5c0.3-1.9,3.5-24.2,3.6-25.1c0.1-0.9,1.1-1.6,3.2-1.3c1.9,0.3,2.8,1,2.8,2.2
		C146.2,228.3,145.4,249.9,144.6,256z M167.2,269.7c-4,0.6-10.9-6.9-11.8-13.7c-0.8-6.1-1.6-27.7-1.7-28.8c-0.1-1.2,0.8-1.9,2.8-2.2
		c2.1-0.3,3,0.4,3.2,1.3c0.1,0.9,3.3,23.2,3.6,25.1c0.3,1.9,1.3,3.5,1.8,3.5c0.5-0.1,1-1.9,0.8-3.8c-0.3-1.9-3.5-24.2-3.6-25.1
		c-0.1-0.9,0.6-1.8,2.7-2.1c1.9-0.3,3,0.2,3.3,1.3c0.3,1.1,5.6,22.1,6.5,28.1C175.7,260,171.2,269.1,167.2,269.7z M200.2,260
		c-3.7,1.7-12.4-3.5-15.2-9.8c-2.5-5.6-9.3-26.1-9.7-27.2c-0.4-1.1,0.3-2,2-2.8c1.9-0.9,3-0.5,3.4,0.4c0.4,0.8,9.7,21.3,10.5,23.1
		c0.8,1.8,2.3,3,2.7,2.8c0.5-0.2,0.5-2.1-0.3-3.9c-0.8-1.8-10.2-22.3-10.5-23.1c-0.4-0.8,0-1.9,2-2.8c1.8-0.8,2.9-0.7,3.5,0.3
		c0.6,1,11.6,19.6,14.2,25.2C205.6,248.3,203.9,258.3,200.2,260z M229.2,241.4c-3.1,2.7-12.9,0.1-17.3-5.2c-4-4.7-16.3-22.4-17-23.4
		c-0.7-0.9-0.3-2,1.2-3.3c1.6-1.4,2.8-1.3,3.4-0.6c0.6,0.7,15.4,17.7,16.6,19.2c1.3,1.5,3,2.3,3.4,1.9c0.4-0.3-0.2-2.2-1.4-3.6
		c-1.3-1.5-16-18.5-16.6-19.2c-0.6-0.7-0.5-1.9,1.1-3.2c1.5-1.3,2.6-1.5,3.4-0.7c0.8,0.8,16.6,15.5,20.7,20.2
		C231.1,228.7,232.3,238.7,229.2,241.4z M251.7,215.4c-2.2,3.4-12.3,3.7-18.1-0.1c-5.1-3.4-22-16.9-22.9-17.6
		c-0.9-0.7-0.9-1.9,0.2-3.5c1.1-1.8,2.3-2,3.1-1.5c0.8,0.5,19.7,12.7,21.4,13.7c1.6,1,3.5,1.3,3.8,0.9c0.3-0.4-0.8-2-2.4-3.1
		s-20.6-13.2-21.4-13.7c-0.8-0.5-1-1.6,0.1-3.4c1-1.6,2.1-2.2,3.1-1.6c1,0.5,20.3,10.2,25.5,13.5C250,202.6,253.9,211.9,251.7,215.4
		z M266,184.1c-1.1,3.9-10.8,7-17.4,5c-5.9-1.8-25.8-10-26.9-10.5c-1.1-0.4-1.4-1.5-0.8-3.4c0.6-2,1.6-2.6,2.5-2.3
		c0.9,0.3,22.5,6.6,24.4,7.2c1.9,0.5,3.8,0.3,3.9-0.2c0.1-0.5-1.3-1.7-3.2-2.3c-1.9-0.5-23.5-6.9-24.4-7.2c-0.9-0.3-1.4-1.3-0.8-3.3
		c0.5-1.9,1.4-2.7,2.5-2.4c1.1,0.2,22.4,4.1,28.3,5.8C260.8,172.3,267.2,180.2,266,184.1z M270.9,150c0,4.1-8.4,9.8-15.2,9.7
		c-6.1,0-27.6-2.3-28.8-2.4c-1.2-0.1-1.7-1.1-1.7-3c0-2.1,0.8-2.9,1.7-2.9s23.5,0,25.4,0c1.9,0,3.7-0.8,3.7-1.3
		c0-0.5-1.7-1.3-3.7-1.3c-1.9,0-24.5,0-25.4,0s-1.7-0.8-1.7-2.9c0-1.9,0.6-2.9,1.7-3c1.2-0.1,22.6-2.4,28.8-2.4
		C262.6,140.2,270.9,145.9,270.9,150z M266,115.9c1.1,3.9-5.3,11.7-11.9,13.6c-5.9,1.7-27.2,5.5-28.3,5.8c-1.1,0.2-2-0.6-2.5-2.4
		c-0.6-2,0-3.1,0.8-3.3c0.9-0.3,22.5-6.6,24.4-7.2c1.9-0.5,3.3-1.8,3.2-2.3c-0.1-0.5-2-0.8-3.9-0.2c-1.9,0.5-23.5,6.9-24.4,7.2
		c-0.9,0.3-1.9-0.3-2.5-2.3c-0.5-1.9-0.3-3,0.8-3.4c1.1-0.4,21.1-8.7,26.9-10.4C255.3,108.9,264.9,112,266,115.9z M251.7,84.6
		c2.2,3.4-1.7,12.7-7.6,16.4c-5.2,3.3-24.5,13-25.5,13.5c-1,0.5-2.1,0-3.1-1.6c-1.1-1.8-0.9-2.9-0.1-3.4
		c0.8-0.5,19.7-12.7,21.4-13.7c1.6-1,2.7-2.7,2.4-3.1c-0.3-0.4-2.2-0.2-3.8,0.9c-1.6,1-20.6,13.2-21.4,13.7
		c-0.8,0.5-1.9,0.3-3.1-1.5c-1-1.6-1.1-2.8-0.2-3.5c0.9-0.7,17.8-14.3,22.9-17.6C239.4,80.9,249.5,81.2,251.7,84.6z M229.2,58.6
		c3.1,2.7,1.9,12.7-2.6,17.9c-4.1,4.6-19.9,19.3-20.7,20.2c-0.8,0.8-2,0.6-3.4-0.7c-1.6-1.4-1.7-2.5-1.1-3.2
		C201.9,92,216.7,75,218,73.6c1.3-1.5,1.8-3.3,1.4-3.6c-0.4-0.3-2.1,0.5-3.4,1.9c-1.3,1.5-16,18.5-16.6,19.2
		c-0.6,0.7-1.8,0.8-3.4-0.6c-1.5-1.3-1.8-2.4-1.2-3.3c0.7-0.9,13-18.7,17-23.4C216.3,58.5,226.1,55.9,229.2,58.6z M175.3,77
		c0.4-1.1,7.2-21.6,9.7-27.2c2.8-6.3,11.5-11.5,15.2-9.8c3.7,1.7,5.4,11.7,2.5,17.9c-2.6,5.6-13.6,24.2-14.2,25.2
		c-0.6,1-1.7,1.1-3.5,0.3c-1.9-0.9-2.3-2-2-2.8c0.4-0.8,9.7-21.3,10.5-23.1c0.8-1.8,0.8-3.7,0.3-3.9c-0.5-0.2-1.9,1-2.7,2.8
		c-0.8,1.8-10.2,22.3-10.5,23.1c-0.4,0.8-1.5,1.2-3.4,0.4C175.6,79.1,174.9,78.1,175.3,77z M155.4,44c0.9-6.8,7.8-14.3,11.8-13.7
		c4,0.6,8.5,9.7,7.5,16.5c-0.9,6.1-6.2,27-6.5,28.1c-0.3,1.1-1.3,1.6-3.3,1.3c-2.1-0.3-2.8-1.2-2.7-2.1c0.1-0.9,3.3-23.2,3.6-25.1
		c0.3-1.9-0.3-3.8-0.8-3.8c-0.5-0.1-1.5,1.5-1.8,3.5c-0.3,1.9-3.5,24.2-3.6,25.1c-0.1,0.9-1.1,1.6-3.2,1.3c-1.9-0.3-2.8-1-2.8-2.2
		C153.8,71.7,154.6,50.1,155.4,44z M217.8,150c0,37.4-30.3,67.8-67.8,67.8c-37.4,0-67.8-30.3-67.8-67.8c0-37.4,30.3-67.8,67.8-67.8
		C187.4,82.2,217.8,112.6,217.8,150z M132.8,30.3c4-0.6,10.9,6.9,11.8,13.7c0.8,6.1,1.6,27.7,1.7,28.8c0.1,1.2-0.8,1.9-2.8,2.2
		c-2.1,0.3-3-0.4-3.2-1.3c-0.1-0.9-3.3-23.2-3.6-25.1c-0.3-1.9-1.3-3.5-1.8-3.5c-0.5,0.1-1,1.9-0.8,3.8c0.3,1.9,3.5,24.2,3.6,25.1
		c0.1,0.9-0.6,1.8-2.7,2.1c-1.9,0.3-3-0.2-3.3-1.3c-0.3-1.1-5.6-22.1-6.5-28.1C124.3,40,128.8,30.9,132.8,30.3z M99.8,40
		c3.7-1.7,12.4,3.5,15.2,9.8c2.5,5.6,9.3,26.1,9.7,27.2c0.4,1.1-0.3,2-2,2.8c-1.9,0.9-3,0.5-3.4-0.4c-0.4-0.8-9.7-21.3-10.5-23.1
		c-0.8-1.8-2.3-3-2.7-2.8c-0.5,0.2-0.5,2.1,0.3,3.9c0.8,1.8,10.2,22.3,10.5,23.1c0.4,0.8,0,1.9-2,2.8c-1.8,0.8-2.9,0.7-3.5-0.3
		c-0.6-1-11.6-19.6-14.2-25.2C94.3,51.7,96.1,41.7,99.8,40z M70.8,58.6c3.1-2.7,12.9-0.1,17.3,5.2c4,4.7,16.3,22.4,17,23.4
		c0.7,0.9,0.3,2-1.2,3.3c-1.6,1.4-2.8,1.3-3.4,0.6C100,90.3,85.3,73.3,84,71.9c-1.3-1.5-3-2.3-3.4-1.9c-0.4,0.3,0.2,2.2,1.4,3.6
		c1.3,1.5,16,18.5,16.6,19.2c0.6,0.7,0.5,1.9-1.1,3.2c-1.5,1.3-2.6,1.5-3.4,0.7c-0.8-0.8-16.6-15.5-20.7-20.2
		C68.9,71.3,67.7,61.3,70.8,58.6z M48.3,84.6c2.2-3.4,12.3-3.7,18.1,0.1c5.1,3.4,22,16.9,22.9,17.6c0.9,0.7,0.9,1.9-0.2,3.5
		c-1.1,1.8-2.3,2-3.1,1.5c-0.8-0.5-19.7-12.7-21.4-13.7c-1.6-1-3.5-1.3-3.8-0.9c-0.3,0.4,0.8,2,2.4,3.1c1.6,1,20.6,13.2,21.4,13.7
		c0.8,0.5,1,1.6-0.1,3.4c-1,1.6-2.1,2.2-3.1,1.6c-1-0.5-20.3-10.2-25.5-13.5C50,97.4,46.1,88.1,48.3,84.6z M34,115.9
		c1.1-3.9,10.8-7,17.4-5c5.9,1.8,25.8,10,26.9,10.4c1.1,0.4,1.4,1.5,0.8,3.4c-0.6,2-1.6,2.6-2.5,2.3c-0.9-0.3-22.5-6.6-24.4-7.2
		c-1.9-0.5-3.8-0.3-3.9,0.2c-0.1,0.5,1.3,1.7,3.2,2.3c1.9,0.5,23.5,6.9,24.4,7.2c0.9,0.3,1.4,1.3,0.8,3.3c-0.5,1.9-1.4,2.7-2.5,2.4
		c-1.1-0.2-22.4-4.1-28.3-5.8C39.2,127.7,32.8,119.8,34,115.9z M29.1,150c0-4.1,8.4-9.8,15.2-9.7c6.1,0,27.6,2.3,28.8,2.4
		c1.2,0.1,1.7,1.1,1.7,3c0,2.1-0.8,2.9-1.7,2.9c-0.9,0-23.5,0-25.4,0c-1.9,0-3.7,0.8-3.7,1.3c0,0.5,1.7,1.3,3.7,1.3
		c1.9,0,24.5,0,25.4,0c0.9,0,1.7,0.8,1.7,2.9c0,1.9-0.6,2.9-1.7,3c-1.2,0.1-22.6,2.4-28.8,2.4C37.4,159.8,29.1,154.1,29.1,150z
		 M34,184.1c-1.1-3.9,5.3-11.7,11.9-13.6c5.9-1.7,27.2-5.5,28.3-5.8c1.1-0.2,2,0.6,2.5,2.4c0.6,2,0,3.1-0.8,3.3
		c-0.9,0.3-22.5,6.6-24.4,7.2c-1.9,0.5-3.3,1.8-3.2,2.3c0.1,0.5,2,0.8,3.9,0.2c1.9-0.5,23.5-6.9,24.4-7.2c0.9-0.3,1.9,0.3,2.5,2.3
		c0.5,1.9,0.3,3-0.8,3.4c-1.1,0.4-21.1,8.7-26.9,10.5C44.7,191.1,35.1,188,34,184.1z M48.3,215.4c-2.2-3.4,1.7-12.7,7.6-16.4
		c5.2-3.3,24.5-13,25.5-13.5c1-0.5,2.1,0,3.1,1.6c1.1,1.8,0.9,2.9,0.1,3.4c-0.8,0.5-19.7,12.7-21.4,13.7c-1.6,1-2.7,2.7-2.4,3.1
		c0.3,0.4,2.2,0.2,3.8-0.9c1.6-1,20.6-13.2,21.4-13.7c0.8-0.5,1.9-0.3,3.1,1.5c1,1.6,1.1,2.8,0.2,3.5c-0.9,0.7-17.8,14.3-22.9,17.6
		C60.6,219.1,50.5,218.8,48.3,215.4z"/>
	<path class="st3" d="M150,12.7C74.2,12.7,12.7,74.2,12.7,150c0,75.8,61.5,137.3,137.3,137.3c75.8,0,137.3-61.5,137.3-137.3
		C287.3,74.2,225.8,12.7,150,12.7z M150,280c-68.4,0-124.5-52.9-129.6-120c-0.3-3.3-0.4-6.6-0.4-10c0-3.4,0.1-6.7,0.4-10
		C25.5,72.9,81.6,20,150,20c71.8,0,130,58.2,130,130C280,221.8,221.8,280,150,280z"/>
	<path class="st3" d="M280,150c0-71.8-58.2-130-130-130C221.7,20,280,78.3,280,150z"/>
	<path class="st3" d="M150,20C81.6,20,25.5,72.9,20.4,140C25.5,73,81.7,20,150,20z"/>
	<path class="st3" d="M150,280c-68.3,0-124.5-53-129.6-120C25.5,227.1,81.6,280,150,280c71.8,0,130-58.2,130-130
		C280,221.7,221.7,280,150,280z"/>
		<animateTransform attributeName="transform" begin="0s" dur="20s" type="rotate" from="0 150 150" to="360 150 150" repeatCount="indefinite"/>
</g>
</svg>
