<?xml version="1.0" standalone="no"?>
<!DOCTYPE svg PUBLIC "-//W3C//DTD SVG 20010904//EN"
 "http://www.w3.org/TR/2001/REC-SVG-20010904/DTD/svg10.dtd">
<svg version="1.0" xmlns="http://www.w3.org/2000/svg"
 width="3242.000000pt" height="3242.000000pt" viewBox="0 0 3242.000000 3242.000000"
 preserveAspectRatio="xMidYMid meet">
<metadata>
Created by potrace 1.11, written by Peter Selinger 2001-2013
</metadata>
<g transform="translate(0.000000,3242.000000) scale(0.100000,-0.100000)"
fill="#000000" stroke="none">
<path d="M15668 32415 c-1 -1 -82 -6 -178 -9 -96 -4 -191 -9 -210 -11 -19 -2
-91 -6 -160 -10 -69 -4 -138 -8 -155 -10 -16 -2 -66 -6 -110 -10 -44 -3 -98
-8 -120 -10 -22 -2 -71 -7 -110 -10 -71 -6 -111 -10 -200 -21 -91 -10 -119
-13 -200 -23 -44 -6 -102 -13 -130 -16 -133 -16 -613 -90 -715 -110 -25 -5
-118 -22 -163 -29 -13 -2 -71 -14 -128 -25 -119 -24 -141 -28 -189 -37 -19 -4
-42 -8 -50 -10 -8 -2 -55 -12 -105 -23 -49 -11 -124 -28 -165 -37 -63 -13
-524 -128 -555 -138 -5 -1 -23 -6 -40 -11 -415 -106 -1149 -345 -1590 -518
-71 -28 -134 -52 -140 -53 -30 -7 -609 -254 -760 -324 -49 -23 -106 -49 -125
-57 -131 -59 -654 -322 -845 -425 -271 -147 -584 -326 -705 -403 -19 -12 -84
-53 -145 -90 -430 -265 -910 -597 -1329 -918 -140 -108 -408 -322 -476 -380
-14 -12 -65 -55 -115 -96 -49 -40 -94 -79 -100 -85 -5 -6 -41 -38 -80 -71 -38
-33 -72 -62 -75 -65 -3 -3 -43 -39 -90 -80 -47 -41 -92 -81 -101 -90 -9 -8
-63 -58 -120 -110 -206 -187 -810 -799 -1002 -1015 -20 -22 -52 -58 -73 -80
-130 -142 -497 -580 -649 -775 -49 -63 -92 -117 -95 -120 -10 -8 -260 -346
-370 -500 -101 -141 -383 -558 -467 -690 -242 -384 -441 -725 -663 -1141 -56
-104 -325 -645 -363 -729 -8 -19 -30 -66 -47 -105 -90 -197 -241 -544 -255
-585 -1 -3 -7 -18 -14 -35 -147 -358 -335 -882 -460 -1281 -46 -150 -169 -570
-176 -604 -2 -8 -24 -96 -50 -195 -26 -99 -48 -187 -50 -195 -6 -32 -59 -257
-70 -300 -2 -9 -17 -85 -21 -110 -3 -14 -9 -41 -14 -60 -13 -52 -71 -346 -85
-430 -3 -19 -8 -42 -10 -50 -2 -8 -7 -31 -9 -50 -3 -19 -14 -88 -25 -152 -11
-64 -23 -136 -26 -160 -3 -24 -8 -50 -10 -58 -2 -8 -7 -39 -10 -69 -4 -30 -8
-61 -10 -70 -2 -9 -7 -44 -11 -76 -4 -33 -9 -62 -9 -65 -1 -3 -5 -36 -9 -75
-5 -38 -10 -78 -12 -87 -1 -9 -6 -48 -9 -85 -4 -37 -9 -75 -10 -83 -3 -15 -14
-114 -20 -179 -23 -233 -24 -246 -40 -438 -2 -32 -7 -101 -10 -153 -3 -52 -7
-120 -10 -150 -14 -168 -20 -444 -20 -935 0 -490 4 -680 20 -935 13 -222 16
-268 20 -305 2 -22 7 -80 10 -129 4 -49 8 -98 10 -110 2 -11 6 -57 9 -101 3
-44 8 -89 10 -100 2 -11 7 -51 10 -90 8 -80 16 -148 21 -185 2 -14 7 -50 10
-80 3 -30 8 -66 10 -80 2 -14 9 -63 15 -110 5 -47 12 -94 14 -105 2 -11 7 -42
10 -70 4 -27 9 -57 11 -65 2 -8 6 -37 10 -65 5 -41 28 -183 60 -360 24 -136
62 -330 91 -465 9 -41 18 -86 20 -100 3 -14 9 -41 14 -60 5 -19 11 -46 14 -60
2 -14 12 -56 21 -95 9 -38 19 -81 21 -95 9 -44 72 -293 114 -446 23 -82 43
-158 45 -169 8 -37 173 -578 215 -705 187 -564 411 -1134 665 -1690 67 -147
323 -666 393 -795 121 -226 145 -271 152 -280 4 -5 21 -35 37 -65 16 -30 39
-72 51 -93 53 -91 66 -114 81 -140 9 -16 21 -36 26 -45 33 -55 112 -187 125
-210 9 -15 23 -38 32 -52 8 -14 71 -113 138 -220 68 -107 126 -197 129 -200 3
-3 12 -16 20 -30 8 -14 71 -108 140 -209 69 -101 133 -193 141 -205 41 -59
136 -192 145 -203 5 -6 21 -28 35 -47 95 -136 532 -696 636 -816 12 -14 68
-79 124 -145 148 -173 256 -296 454 -510 117 -127 686 -699 796 -800 90 -83
255 -232 315 -286 28 -24 52 -46 55 -49 6 -7 279 -241 345 -296 59 -49 266
-217 316 -256 18 -15 69 -54 111 -87 673 -528 1501 -1065 2318 -1504 109 -59
597 -304 695 -349 55 -26 135 -62 177 -82 156 -73 439 -195 638 -276 58 -23
119 -48 135 -55 85 -36 438 -167 650 -240 354 -122 480 -162 920 -290 60 -18
306 -84 332 -90 10 -2 70 -17 133 -33 145 -37 389 -94 545 -126 178 -37 317
-65 345 -70 14 -2 36 -7 50 -10 26 -6 42 -9 145 -26 33 -5 69 -12 80 -14 31
-6 205 -35 250 -41 22 -4 51 -8 65 -11 14 -2 45 -6 70 -10 25 -3 56 -7 69 -9
13 -2 45 -7 70 -11 25 -3 57 -8 71 -10 14 -2 50 -6 80 -10 30 -3 66 -7 80 -10
14 -2 50 -6 80 -9 30 -3 69 -8 85 -10 17 -3 58 -7 90 -10 33 -3 71 -7 85 -10
14 -2 63 -7 110 -10 47 -4 96 -8 110 -10 39 -6 195 -18 395 -30 55 -4 123 -8
150 -10 384 -27 1414 -27 1835 0 36 2 108 7 160 10 52 3 120 8 150 10 30 3 87
7 125 10 67 5 119 10 215 20 25 3 77 7 115 10 39 3 81 8 95 10 32 5 124 16
171 20 20 2 50 5 65 8 16 3 54 9 85 12 31 3 65 7 75 9 11 2 46 7 79 11 32 4
66 8 75 10 25 4 92 15 135 20 22 3 63 10 90 15 28 5 68 12 89 15 21 3 48 7 60
10 12 2 37 7 56 10 19 2 46 7 60 9 14 3 63 12 110 20 178 32 441 84 510 101
30 8 66 16 80 19 14 2 57 12 95 21 39 9 79 18 90 21 56 11 259 61 410 101 904
237 1757 541 2625 936 470 214 954 465 1446 753 474 276 931 577 1389 912 157
115 463 348 475 361 3 4 21 18 42 33 20 15 42 33 50 40 7 7 58 49 113 93 88
70 372 309 385 325 3 3 36 32 75 65 38 33 76 67 85 75 9 8 56 51 104 95 49 44
130 118 180 165 135 125 677 669 786 789 52 57 104 113 115 125 11 12 56 62
100 111 126 141 147 165 218 249 23 27 47 54 52 60 25 27 211 253 309 376 59
74 115 144 125 155 45 53 382 510 491 665 206 294 459 684 630 970 109 182
250 429 250 436 0 4 6 15 14 23 7 9 37 61 66 116 29 55 75 141 102 190 313
584 705 1473 925 2100 153 437 276 827 367 1165 51 187 168 655 182 725 2 11
6 30 9 43 3 12 7 32 10 45 2 12 9 42 15 67 5 25 12 56 14 70 3 14 15 72 26
130 12 58 23 116 26 130 2 14 9 45 14 70 5 25 12 59 15 75 2 17 16 95 29 175
14 80 27 161 30 180 3 19 7 44 10 55 2 11 7 43 10 70 4 28 11 75 16 105 12 71
17 106 30 210 17 138 20 163 25 200 3 19 7 60 10 90 3 30 7 71 9 90 4 32 10
88 21 195 10 92 15 154 20 215 12 165 15 200 20 280 4 47 8 121 10 165 2 44 8
143 12 220 4 77 7 385 8 685 0 479 -5 684 -20 930 -14 218 -24 368 -30 435 -2
28 -7 82 -10 120 -3 39 -8 84 -10 100 -3 17 -7 62 -10 100 -3 39 -8 86 -10
105 -3 19 -7 58 -10 85 -13 109 -16 131 -20 165 -3 19 -7 51 -9 70 -10 83 -19
143 -37 267 -11 73 -22 145 -24 160 -2 16 -6 43 -9 61 -3 17 -8 44 -11 60 -27
165 -50 297 -70 397 -13 66 -26 134 -29 150 -21 120 -100 472 -162 725 -193
780 -490 1673 -799 2395 -65 152 -70 163 -95 220 -12 28 -40 88 -60 135 -86
194 -342 718 -433 885 -23 44 -63 118 -89 165 -73 135 -107 198 -175 314 -35
60 -63 111 -63 113 0 3 -8 17 -19 31 -10 15 -30 47 -44 72 -14 25 -43 74 -66
110 -23 36 -44 72 -48 80 -15 32 -138 225 -317 497 -263 401 -669 954 -935
1276 -196 236 -437 518 -493 579 -7 7 -51 56 -98 108 -180 200 -704 733 -915
930 -135 126 -208 192 -279 255 -38 33 -74 65 -80 71 -107 101 -545 465 -771
639 -49 38 -95 74 -102 80 -140 117 -873 633 -1068 752 -11 7 -112 70 -225
141 -315 197 -659 396 -980 566 -193 103 -688 346 -855 421 -82 37 -174 78
-203 91 -584 264 -1400 557 -2132 764 -169 48 -570 152 -630 164 -14 2 -65 14
-115 26 -49 12 -108 25 -130 30 -22 4 -105 22 -185 38 -80 17 -161 34 -180 37
-19 3 -42 8 -50 10 -8 2 -28 7 -45 10 -16 2 -57 10 -90 16 -33 6 -69 13 -80
14 -11 2 -58 10 -105 19 -117 21 -126 23 -285 46 -77 12 -153 23 -170 26 -16
3 -48 7 -70 9 -22 3 -49 7 -60 9 -12 2 -48 7 -80 11 -33 4 -71 8 -85 10 -14 2
-50 7 -80 10 -30 3 -89 10 -130 15 -41 5 -105 12 -142 15 -37 3 -77 8 -90 10
-13 2 -61 6 -108 10 -47 4 -101 8 -120 10 -19 2 -75 7 -124 10 -49 3 -109 8
-133 10 -23 2 -109 7 -190 11 -82 4 -166 9 -188 11 -49 4 -1262 13 -1267 8z
m1132 -779 c58 -3 164 -8 235 -12 192 -9 280 -15 445 -29 25 -2 81 -6 125 -10
44 -3 91 -8 105 -10 14 -3 57 -7 95 -10 39 -4 81 -8 95 -10 14 -2 50 -7 80
-10 30 -3 73 -7 95 -10 109 -14 203 -26 230 -30 17 -2 53 -7 80 -11 28 -3 59
-8 70 -10 11 -2 40 -6 65 -9 25 -3 56 -8 70 -11 13 -3 40 -7 60 -10 49 -6 201
-32 290 -49 41 -8 91 -17 110 -20 19 -3 89 -17 155 -30 66 -13 131 -26 145
-29 14 -2 75 -16 135 -30 61 -14 121 -27 135 -30 100 -18 459 -108 680 -169
570 -159 1110 -341 1650 -557 108 -43 131 -53 212 -89 26 -11 50 -21 53 -21 2
0 28 -11 57 -24 29 -13 107 -47 173 -76 262 -116 756 -354 957 -463 35 -19 99
-54 143 -77 44 -24 127 -70 185 -103 58 -33 121 -68 140 -79 29 -16 249 -146
325 -191 206 -124 705 -451 890 -584 33 -23 93 -66 134 -95 198 -142 769 -581
801 -618 3 -3 61 -52 130 -109 69 -57 130 -109 135 -115 6 -6 26 -24 45 -40
19 -16 67 -58 106 -93 40 -35 83 -73 95 -84 176 -151 653 -618 897 -878 70
-74 138 -146 152 -161 14 -14 59 -64 100 -111 41 -46 77 -86 80 -89 3 -3 34
-39 70 -80 36 -41 68 -77 71 -80 9 -8 272 -324 299 -359 14 -18 30 -38 36 -44
27 -31 242 -307 338 -437 59 -80 113 -152 120 -161 114 -142 696 -1019 696
-1049 0 -5 4 -10 8 -12 6 -2 178 -288 239 -398 258 -464 419 -777 605 -1180
132 -284 296 -677 416 -995 86 -229 266 -755 312 -915 12 -41 25 -82 28 -90 3
-8 6 -19 8 -25 1 -5 27 -98 58 -205 31 -107 58 -204 61 -215 2 -11 32 -128 65
-260 53 -210 148 -634 165 -735 3 -19 8 -42 10 -50 2 -8 6 -26 9 -40 2 -14 11
-63 20 -110 8 -47 18 -98 20 -115 3 -16 8 -41 11 -55 3 -14 7 -41 9 -60 8 -63
16 -114 22 -140 3 -14 7 -36 9 -50 2 -14 11 -74 20 -135 20 -133 22 -145 29
-215 3 -30 8 -64 10 -75 2 -11 7 -50 10 -87 4 -37 9 -77 11 -90 2 -13 11 -95
20 -183 8 -88 18 -182 20 -210 3 -27 8 -86 10 -130 3 -44 7 -93 9 -110 3 -16
8 -86 11 -155 4 -69 8 -145 10 -170 18 -227 24 -1048 11 -1365 -9 -227 -15
-339 -21 -425 -3 -41 -7 -109 -10 -150 -2 -41 -7 -102 -10 -135 -8 -86 -13
-139 -21 -230 -3 -44 -8 -87 -9 -95 -2 -8 -6 -49 -10 -90 -4 -41 -8 -82 -10
-90 -2 -8 -6 -46 -10 -85 -4 -38 -9 -77 -10 -86 -2 -9 -6 -40 -10 -70 -3 -30
-8 -65 -10 -79 -2 -14 -9 -61 -15 -105 -6 -44 -12 -91 -15 -105 -5 -32 -16
-99 -19 -125 -13 -83 -20 -126 -41 -240 -13 -71 -27 -150 -30 -175 -4 -24 -8
-47 -10 -50 -2 -3 -6 -21 -9 -40 -3 -19 -12 -68 -20 -107 -9 -40 -18 -87 -21
-105 -4 -18 -11 -53 -16 -78 -6 -25 -12 -52 -14 -60 -137 -614 -254 -1039
-446 -1615 -49 -148 -93 -279 -98 -290 -5 -11 -31 -78 -57 -150 -42 -118 -132
-351 -153 -400 -5 -11 -24 -56 -41 -100 -222 -554 -564 -1252 -885 -1810 -54
-93 -103 -179 -109 -190 -6 -11 -18 -31 -27 -45 -9 -14 -56 -90 -104 -170
-223 -365 -583 -897 -782 -1155 -5 -6 -28 -37 -53 -70 -24 -33 -48 -64 -52
-70 -5 -5 -61 -77 -125 -160 -101 -129 -247 -310 -319 -395 -12 -14 -66 -77
-120 -140 -102 -120 -130 -152 -255 -291 -123 -136 -143 -157 -282 -303 -307
-324 -518 -526 -992 -956 -156 -141 -606 -510 -805 -660 -47 -36 -87 -67 -90
-70 -9 -11 -332 -245 -485 -351 -207 -145 -479 -324 -690 -454 -146 -91 -387
-235 -392 -235 -2 0 -22 -12 -45 -26 -23 -14 -60 -36 -82 -48 -23 -13 -136
-75 -253 -139 -262 -144 -666 -347 -888 -447 -27 -12 -81 -37 -120 -55 -38
-18 -135 -61 -215 -95 -80 -34 -158 -68 -175 -75 -222 -99 -799 -313 -1165
-433 -256 -84 -715 -220 -799 -237 -9 -2 -52 -13 -96 -25 -281 -77 -848 -201
-1160 -255 -16 -2 -55 -9 -85 -15 -30 -5 -73 -12 -95 -15 -22 -4 -47 -8 -55
-10 -22 -6 -220 -36 -330 -50 -25 -3 -72 -10 -105 -15 -33 -5 -85 -12 -115
-15 -30 -3 -73 -8 -95 -11 -22 -3 -56 -7 -75 -9 -19 -2 -57 -7 -85 -10 -27 -3
-70 -8 -95 -10 -25 -2 -70 -7 -100 -10 -98 -10 -133 -13 -240 -20 -58 -3 -116
-8 -130 -10 -14 -2 -77 -6 -140 -10 -63 -3 -142 -8 -175 -10 -308 -24 -1206
-24 -1610 0 -179 11 -278 17 -327 20 -115 9 -205 16 -238 20 -19 2 -73 7 -120
11 -47 3 -92 7 -100 9 -8 2 -46 6 -85 10 -38 4 -81 8 -95 10 -14 2 -52 7 -85
10 -33 4 -71 8 -85 10 -14 2 -47 7 -75 10 -89 11 -149 20 -345 50 -91 14 -175
27 -186 29 -12 2 -39 7 -60 10 -173 28 -534 99 -764 151 -63 15 -126 29 -140
31 -14 3 -52 12 -85 21 -33 8 -68 17 -78 18 -28 6 -230 58 -417 109 -309 83
-863 260 -1170 373 -168 61 -284 105 -315 119 -16 7 -70 29 -120 48 -82 32
-305 123 -387 159 -504 219 -927 427 -1368 672 -223 124 -263 146 -275 155 -5
4 -30 19 -55 32 -53 30 -320 190 -370 223 -19 12 -60 38 -90 57 -30 20 -142
93 -249 164 -107 71 -202 134 -211 139 -64 40 -466 331 -620 448 -151 115
-437 342 -510 404 -14 12 -45 38 -70 58 -45 37 -143 121 -164 140 -6 6 -65 57
-131 115 -66 57 -142 126 -170 152 -27 26 -61 56 -75 68 -97 83 -523 501 -725
712 -213 223 -536 584 -675 755 -8 10 -56 68 -106 128 -296 357 -644 829 -916
1240 -65 99 -122 185 -126 190 -16 23 -237 379 -272 440 -10 17 -48 82 -85
145 -165 282 -312 553 -483 895 -87 173 -130 264 -257 540 -96 208 -264 614
-350 845 -25 69 -50 134 -55 145 -15 32 -135 381 -195 562 -75 231 -167 539
-210 703 -2 8 -16 60 -31 115 -14 55 -30 116 -34 135 -5 19 -30 121 -55 225
-62 256 -121 532 -164 770 -6 33 -13 71 -16 85 -9 43 -15 80 -35 205 -13 76
-14 85 -25 160 -4 28 -9 59 -11 69 -3 17 -19 128 -29 203 -1 16 -6 46 -9 68
-8 57 -34 271 -40 330 -7 66 -15 144 -21 203 -2 26 -7 70 -9 97 -3 28 -8 82
-11 120 -3 39 -7 97 -10 130 -44 549 -53 1507 -19 1995 2 36 6 101 9 145 9
140 18 259 30 390 4 33 8 85 11 115 2 30 6 71 9 90 2 19 7 64 10 100 4 36 8
77 11 92 2 15 6 49 9 75 6 65 28 230 40 308 3 17 7 48 10 70 3 22 7 51 10 65
3 14 7 41 10 60 2 19 7 51 10 70 3 19 7 53 10 75 3 22 7 47 10 55 2 8 6 31 9
50 3 19 8 46 11 60 3 14 7 39 9 57 3 18 7 40 10 50 2 10 7 36 11 58 8 55 66
340 110 540 14 66 28 127 30 135 2 8 10 42 18 75 9 33 18 71 21 85 6 30 65
259 99 385 98 359 265 886 377 1185 17 47 32 90 34 95 1 6 15 44 31 85 16 41
30 77 31 80 0 3 5 14 9 25 5 11 39 97 76 190 60 152 155 379 212 505 11 25 21
47 22 50 2 6 32 73 74 163 17 37 45 97 62 135 41 89 259 525 316 632 264 491
457 815 764 1283 260 398 639 915 901 1232 194 235 436 518 523 611 5 6 51 55
100 109 274 299 767 791 969 966 22 19 54 48 71 64 78 74 376 331 535 461 256
209 609 481 796 614 209 147 272 191 399 277 80 54 153 103 162 108 10 6 50
31 88 56 55 36 257 162 365 228 25 16 273 162 310 184 48 28 272 152 345 192
33 18 92 49 130 70 143 78 746 375 760 375 2 0 51 23 110 50 59 28 108 50 110
50 3 0 28 11 57 24 29 13 98 43 153 66 55 23 114 48 130 55 28 12 247 100 325
130 517 199 1018 362 1570 511 113 31 212 57 220 59 8 2 94 22 190 45 96 23
185 43 198 46 13 3 76 16 140 30 116 25 188 40 247 50 17 2 37 7 45 9 36 11
404 75 572 100 57 9 114 17 128 20 35 5 87 13 140 20 25 3 61 7 80 10 19 3 55
7 80 10 25 3 61 8 80 10 33 5 58 8 175 20 28 3 66 8 85 10 38 4 125 13 205 19
28 3 82 7 120 11 70 6 117 9 295 21 147 9 192 12 385 19 99 4 181 8 182 9 5 5
904 -2 1003 -8z"/>
<path d="M15778 31314 c-2 -1 -82 -5 -178 -9 -96 -3 -204 -8 -240 -10 -176
-10 -269 -16 -305 -20 -22 -2 -74 -7 -115 -10 -41 -3 -97 -7 -125 -10 -27 -3
-77 -7 -110 -10 -33 -3 -73 -7 -90 -10 -35 -5 -122 -15 -185 -21 -40 -3 -164
-19 -230 -29 -14 -2 -47 -6 -75 -10 -27 -3 -57 -8 -65 -10 -8 -2 -37 -6 -65
-10 -59 -7 -223 -32 -268 -41 -12 -2 -39 -6 -62 -10 -22 -3 -85 -14 -140 -24
-55 -11 -113 -22 -130 -24 -79 -14 -294 -58 -420 -86 -77 -18 -151 -34 -165
-36 -137 -26 -622 -157 -1040 -280 -204 -60 -856 -286 -965 -334 -11 -5 -96
-39 -190 -76 -553 -218 -1340 -595 -1805 -864 -36 -21 -81 -47 -100 -57 -276
-155 -852 -521 -1155 -734 -296 -209 -805 -598 -986 -753 -19 -17 -46 -40 -60
-51 -34 -28 -152 -128 -165 -140 -6 -6 -39 -35 -74 -65 -34 -30 -68 -60 -74
-65 -6 -6 -56 -51 -111 -100 -55 -50 -120 -108 -144 -130 -25 -22 -198 -193
-386 -380 -292 -291 -388 -390 -546 -566 -13 -15 -40 -44 -59 -65 -164 -181
-339 -389 -593 -704 -35 -44 -155 -199 -230 -300 -48 -63 -90 -119 -95 -125
-37 -46 -304 -429 -407 -585 -193 -289 -307 -472 -478 -765 -54 -93 -104 -176
-109 -182 -6 -7 -7 -13 -3 -13 5 0 1 -8 -7 -17 -14 -17 -39 -61 -128 -228 -23
-44 -57 -107 -75 -140 -42 -77 -99 -189 -100 -195 -1 -3 -16 -34 -35 -70 -39
-75 -90 -179 -130 -265 -15 -33 -51 -109 -79 -168 -28 -60 -51 -110 -51 -112
0 -2 -16 -37 -35 -78 -107 -234 -300 -716 -421 -1052 -102 -285 -259 -778
-304 -955 -5 -19 -15 -53 -22 -75 -6 -22 -13 -44 -14 -50 -1 -5 -14 -54 -29
-108 -14 -54 -28 -106 -30 -115 -2 -9 -20 -82 -40 -162 -20 -80 -39 -156 -41
-170 -3 -14 -7 -33 -10 -42 -3 -10 -7 -30 -10 -45 -3 -16 -9 -44 -14 -63 -5
-19 -11 -46 -14 -60 -3 -14 -7 -36 -10 -50 -8 -38 -26 -122 -31 -148 -2 -13
-6 -31 -9 -40 -3 -9 -7 -33 -10 -52 -3 -19 -16 -91 -30 -160 -13 -69 -27 -145
-31 -170 -3 -25 -8 -52 -10 -60 -2 -8 -7 -35 -10 -60 -3 -25 -8 -52 -10 -60
-2 -8 -7 -35 -10 -60 -3 -25 -8 -56 -10 -70 -7 -40 -13 -79 -25 -170 -11 -80
-16 -122 -25 -180 -2 -14 -6 -45 -9 -70 -3 -25 -8 -67 -12 -95 -3 -27 -7 -66
-9 -85 -2 -19 -8 -82 -14 -140 -20 -189 -22 -207 -26 -271 -3 -35 -7 -89 -10
-119 -2 -30 -7 -95 -10 -145 -3 -49 -7 -124 -10 -165 -26 -399 -26 -1336 -1
-1695 2 -27 7 -102 10 -165 4 -63 9 -128 11 -145 2 -16 7 -68 10 -115 3 -47 7
-101 9 -120 3 -19 7 -66 11 -105 3 -38 8 -81 10 -95 2 -14 6 -56 10 -93 3 -37
8 -76 10 -85 1 -9 6 -44 9 -77 7 -64 16 -134 21 -175 2 -14 7 -47 10 -75 4
-27 8 -57 10 -65 2 -8 7 -35 10 -60 3 -25 15 -101 26 -170 11 -69 22 -138 25
-155 2 -16 18 -104 35 -195 17 -91 33 -176 35 -190 20 -112 151 -696 159 -710
2 -3 6 -18 8 -31 15 -78 149 -558 223 -799 138 -445 383 -1115 514 -1404 10
-23 41 -95 70 -161 171 -397 434 -925 667 -1340 145 -258 372 -637 434 -725 9
-14 78 -117 152 -230 234 -355 461 -670 741 -1025 130 -164 303 -375 387 -469
20 -23 45 -52 57 -66 40 -48 58 -69 132 -151 41 -46 95 -106 120 -134 108
-120 193 -208 485 -500 171 -171 357 -353 414 -405 57 -52 116 -106 131 -120
15 -14 60 -54 101 -90 40 -36 94 -83 119 -105 25 -23 74 -65 110 -95 36 -30
67 -57 70 -60 7 -8 258 -212 375 -306 152 -122 451 -345 630 -471 88 -62 165
-116 170 -121 14 -11 389 -260 450 -298 28 -17 70 -44 95 -60 25 -16 57 -35
71 -44 14 -8 120 -72 235 -141 367 -222 955 -534 1329 -706 223 -103 267 -123
271 -123 2 0 32 -13 66 -29 35 -15 119 -52 188 -80 69 -28 134 -56 145 -61 93
-42 492 -193 755 -285 237 -83 539 -179 790 -251 189 -54 670 -178 732 -189
17 -3 34 -8 37 -10 4 -2 26 -6 51 -10 25 -4 48 -9 51 -11 4 -2 52 -13 106 -25
54 -11 105 -22 113 -24 38 -8 389 -75 420 -80 19 -3 58 -10 85 -15 28 -5 64
-12 80 -14 17 -3 71 -12 120 -20 50 -8 115 -18 145 -21 30 -4 62 -9 70 -10 8
-1 40 -6 70 -10 30 -4 62 -9 70 -10 8 -2 42 -6 75 -9 33 -4 67 -9 75 -11 8 -2
47 -7 85 -10 39 -3 84 -8 100 -10 53 -7 118 -14 190 -20 39 -4 81 -8 95 -10
14 -2 68 -7 120 -10 52 -4 111 -8 130 -10 19 -2 85 -7 145 -10 61 -4 130 -8
155 -10 233 -19 1094 -26 1425 -11 321 13 349 15 415 21 36 3 101 7 145 10 44
3 98 7 120 10 22 2 78 7 125 11 47 3 92 7 101 9 9 2 52 6 95 10 43 3 90 8 104
10 14 2 50 7 80 10 30 4 67 8 82 11 15 2 49 6 75 9 43 4 75 8 153 20 14 2 50
7 80 11 30 4 57 8 60 9 3 1 30 5 60 9 30 4 78 11 105 16 28 5 64 11 80 14 46
6 157 25 185 31 14 3 52 10 85 16 33 5 105 19 160 30 55 11 114 22 130 25 17
3 80 16 140 29 61 14 130 29 155 34 25 6 131 31 235 56 105 26 197 48 205 50
105 23 594 164 805 232 510 165 1118 392 1413 529 29 13 54 24 57 24 12 0 659
302 725 339 8 4 87 45 175 91 88 46 195 103 239 127 43 23 80 43 81 43 2 0
105 58 228 129 453 260 843 510 1300 834 17 12 54 39 82 60 27 20 55 41 60 45
68 50 290 216 303 226 132 104 438 351 442 356 3 3 34 30 69 59 35 29 70 58
77 64 6 7 38 35 70 62 83 71 336 297 419 375 229 214 731 727 921 940 27 30
69 77 94 105 85 93 360 419 456 541 451 565 818 1090 1175 1680 37 62 78 132
92 155 14 24 47 82 74 129 27 47 63 110 80 140 16 30 44 80 61 110 105 187
414 802 485 965 19 44 46 105 60 135 107 233 295 695 394 970 114 317 323 963
348 1076 2 10 20 75 39 144 29 104 77 289 91 350 73 309 91 391 121 540 14 69
28 134 30 145 2 11 6 34 9 50 3 17 10 53 15 80 5 28 11 61 14 75 2 14 11 63
20 110 8 47 18 101 21 120 3 19 10 60 15 90 5 30 12 75 15 100 3 25 8 57 11
73 9 55 13 83 19 137 4 30 9 62 10 70 2 8 6 44 10 80 4 36 8 72 10 80 1 8 6
42 9 75 4 33 9 76 11 95 5 38 13 115 20 200 3 30 7 73 10 95 2 22 7 78 11 125
3 47 8 101 10 120 1 19 6 89 9 155 4 66 8 136 10 155 25 236 25 1376 0 1675
-2 28 -7 97 -10 155 -4 58 -8 121 -10 140 -2 19 -6 80 -10 135 -4 55 -8 107
-10 115 -2 8 -6 53 -10 99 -4 47 -8 92 -10 100 -1 9 -6 48 -9 86 -4 39 -9 81
-11 95 -4 27 -12 90 -20 160 -6 50 -14 112 -20 150 -2 14 -6 45 -10 70 -3 25
-8 56 -10 70 -3 14 -7 41 -9 60 -4 32 -8 57 -22 145 -3 17 -7 37 -9 45 -2 8
-6 38 -10 65 -3 28 -12 82 -20 120 -8 39 -17 88 -21 110 -3 22 -10 59 -15 83
-5 23 -12 59 -15 80 -3 20 -8 40 -10 43 -2 4 -6 24 -10 44 -3 21 -8 47 -10 59
-3 11 -9 42 -14 67 -14 72 -89 394 -117 504 -13 55 -26 107 -28 115 -23 99
-135 493 -198 700 -286 930 -713 1937 -1171 2765 -19 33 -51 92 -72 130 -20
39 -73 131 -117 205 -43 74 -88 151 -99 170 -122 212 -471 747 -664 1015 -100
140 -159 221 -164 225 -3 3 -52 68 -109 145 -126 168 -380 487 -475 595 -12
14 -44 52 -71 85 -28 33 -52 62 -55 65 -3 3 -23 25 -45 50 -123 140 -173 196
-195 220 -14 15 -59 65 -100 111 -41 46 -223 232 -405 414 -294 294 -433 428
-600 576 -27 24 -61 55 -75 69 -14 14 -68 61 -120 105 -52 44 -97 82 -100 85
-12 14 -366 305 -475 390 -66 52 -124 98 -130 102 -36 30 -297 222 -417 307
-79 56 -150 107 -158 114 -34 27 -358 242 -525 349 -213 135 -579 354 -750
449 -1095 603 -2116 1023 -3285 1353 -199 56 -574 152 -710 181 -101 22 -489
103 -520 108 -43 8 -144 27 -165 31 -32 5 -87 15 -120 20 -16 3 -70 12 -120
20 -49 8 -106 17 -125 20 -19 3 -82 12 -140 20 -58 8 -127 18 -155 21 -27 4
-61 8 -75 11 -14 2 -50 6 -80 10 -30 3 -65 7 -78 9 -13 2 -53 7 -90 10 -37 4
-78 8 -92 11 -14 2 -56 6 -95 9 -38 3 -86 8 -105 10 -19 2 -75 7 -125 10 -49
4 -101 8 -115 10 -14 2 -74 7 -135 10 -60 3 -141 8 -180 10 -186 13 -347 17
-787 19 -263 2 -479 2 -480 0z m527 -555 c370 -93 806 -655 991 -1275 30 -102
59 -241 73 -346 9 -68 7 -439 -3 -573 -3 -33 -7 -103 -10 -155 -4 -52 -8 -117
-11 -145 -2 -27 -7 -86 -10 -130 -12 -161 -27 -344 -40 -490 -3 -33 -7 -89
-10 -125 -3 -36 -7 -85 -10 -110 -6 -61 -13 -141 -20 -225 -3 -38 -8 -86 -10
-105 -2 -19 -7 -66 -10 -105 -4 -38 -8 -81 -10 -95 -2 -14 -7 -59 -10 -100 -4
-41 -8 -93 -10 -115 -2 -22 -6 -67 -10 -100 -3 -33 -7 -80 -10 -105 -2 -25 -7
-72 -11 -105 -3 -33 -7 -76 -9 -95 -2 -19 -7 -66 -10 -105 -4 -38 -8 -81 -10
-95 -2 -14 -7 -61 -11 -105 -3 -44 -8 -89 -10 -100 -2 -11 -6 -54 -10 -95 -3
-41 -7 -86 -9 -100 -2 -14 -6 -59 -10 -100 -11 -132 -25 -175 -74 -219 -58
-52 -141 -74 -291 -76 -192 -3 -317 51 -350 150 -9 27 -12 448 -14 1638 -1
881 -6 1616 -9 1632 -50 214 -118 318 -178 272 -22 -17 -65 -93 -83 -147 -44
-131 -44 -130 -46 -1794 -1 -1288 -3 -1584 -14 -1610 -19 -47 -86 -99 -152
-120 -73 -23 -240 -28 -332 -11 -102 20 -168 60 -196 120 -19 39 -22 58 -41
270 -3 33 -8 76 -10 95 -5 40 -12 117 -20 204 -3 33 -8 73 -10 90 -2 17 -9 83
-15 146 -6 63 -13 131 -15 150 -3 19 -7 69 -10 110 -3 41 -8 86 -10 100 -2 14
-6 57 -10 95 -5 71 -12 141 -20 205 -2 19 -7 69 -10 110 -3 41 -8 91 -10 110
-3 19 -7 63 -10 98 -8 93 -14 172 -19 217 -2 22 -7 78 -11 125 -4 47 -8 99
-10 115 -2 17 -6 66 -10 110 -4 44 -8 100 -10 125 -10 118 -15 181 -20 250 -3
41 -7 100 -10 130 -2 30 -7 97 -11 149 -3 52 -8 115 -9 140 -2 25 -6 159 -8
296 -6 278 2 351 54 565 72 293 232 631 415 876 148 198 308 349 454 427 65
35 155 64 205 66 28 2 52 4 53 6 2 2 9 2 15 0 7 -2 35 -9 62 -16z m-3916 -584
c195 -51 391 -161 626 -355 86 -70 311 -309 386 -410 191 -256 295 -466 368
-742 47 -176 182 -781 215 -958 2 -14 16 -79 30 -145 14 -66 28 -134 31 -151
2 -17 18 -96 34 -175 34 -166 74 -371 101 -514 11 -55 22 -111 25 -125 3 -14
7 -40 10 -59 2 -18 7 -41 9 -50 3 -9 8 -29 10 -46 3 -16 17 -91 31 -165 25
-130 80 -423 91 -485 3 -16 11 -61 19 -100 8 -38 17 -83 19 -100 3 -16 10 -55
16 -85 6 -30 13 -71 16 -90 3 -19 9 -49 13 -65 20 -74 -7 -155 -69 -208 -44
-37 -90 -61 -185 -96 -59 -22 -151 -40 -208 -41 -138 -1 -215 61 -243 195 -1
6 -23 80 -48 165 -26 85 -48 162 -50 171 -3 8 -12 40 -21 70 -16 53 -68 230
-158 539 -25 85 -57 193 -71 240 -13 47 -47 162 -75 257 -56 191 -119 406
-156 528 -13 44 -56 190 -95 325 -192 660 -178 614 -223 710 -56 121 -143 226
-203 244 -52 16 -84 -85 -79 -251 2 -59 11 -135 19 -168 9 -33 18 -69 21 -79
2 -11 11 -40 19 -65 8 -25 35 -116 60 -201 25 -85 68 -234 96 -330 29 -96 56
-188 60 -205 4 -16 65 -223 135 -460 69 -236 189 -644 266 -905 76 -261 147
-500 156 -530 9 -30 18 -59 20 -65 1 -5 13 -51 27 -101 32 -119 24 -158 -45
-225 -48 -47 -103 -77 -199 -111 -70 -24 -90 -28 -180 -35 -144 -11 -208 27
-260 155 -18 42 -38 91 -45 107 -19 45 -101 248 -319 790 -109 270 -201 499
-206 510 -35 76 -450 1149 -499 1290 -17 50 -36 99 -41 110 -5 11 -16 40 -24
65 -8 25 -29 86 -46 135 -30 84 -77 231 -85 265 -45 193 -55 285 -55 500 1
203 7 267 45 473 56 298 175 602 313 797 98 138 227 240 337 266 65 15 183 11
264 -11z m7954 -5 c152 -57 310 -240 427 -495 99 -213 182 -516 205 -750 3
-33 8 -80 11 -105 7 -64 6 -298 -1 -367 -28 -259 -70 -405 -280 -968 -136
-363 -553 -1429 -648 -1655 -6 -14 -11 -27 -12 -30 -1 -3 -7 -17 -13 -32 -24
-59 -226 -556 -241 -595 -9 -23 -20 -45 -24 -49 -4 -4 -7 -13 -7 -21 0 -7 -8
-32 -19 -56 -10 -23 -38 -88 -61 -144 -64 -156 -117 -191 -275 -180 -188 13
-374 105 -423 210 -23 50 -22 91 7 181 11 33 83 279 161 546 77 267 149 512
160 545 10 33 37 125 60 205 22 80 45 156 50 170 5 14 32 106 60 205 64 223
185 633 206 700 9 28 17 57 19 65 2 8 17 62 35 120 17 58 38 128 46 155 8 28
16 57 19 65 47 154 64 257 60 370 -3 102 -21 167 -52 187 -20 14 -26 13 -59
-7 -65 -41 -159 -180 -203 -300 -24 -65 -14 -33 -286 -960 -119 -404 -226
-771 -240 -815 -13 -44 -44 -150 -69 -235 -25 -85 -81 -279 -126 -430 -45
-151 -83 -282 -85 -290 -28 -114 -91 -302 -110 -326 -57 -74 -182 -92 -345
-49 -153 41 -260 107 -295 181 -24 51 -27 80 -15 138 6 28 12 60 14 71 8 48
16 92 21 115 9 42 14 73 20 115 4 22 8 47 10 55 3 8 23 112 45 230 22 118 42
226 45 240 11 57 27 137 69 360 25 129 47 246 50 260 3 14 10 50 16 80 6 30
13 69 16 85 3 17 20 107 39 200 19 94 36 181 39 195 2 14 12 61 21 105 9 44
19 91 21 105 3 14 11 57 20 95 15 66 70 332 80 385 3 14 21 95 40 180 19 85
37 162 39 172 2 9 18 75 35 147 17 72 31 133 31 136 -2 20 92 263 139 360 50
101 159 281 195 321 5 7 19 25 30 40 80 113 267 310 405 426 221 185 496 331
680 361 63 10 187 -2 243 -23z m-11518 -1651 c252 -40 547 -160 816 -330 98
-62 209 -140 245 -174 6 -5 33 -29 60 -51 129 -109 271 -270 359 -405 50 -78
165 -268 165 -274 0 -2 15 -30 34 -62 39 -68 75 -133 124 -223 19 -36 47 -87
62 -115 15 -27 45 -81 65 -120 21 -38 54 -101 75 -140 36 -67 196 -372 305
-580 29 -55 94 -181 145 -280 51 -99 123 -238 160 -310 37 -71 165 -321 283
-555 l216 -425 -42 -82 c-23 -44 -67 -129 -97 -187 l-55 -107 -82 -41 c-126
-62 -239 -64 -299 -3 -15 14 -88 124 -184 275 -110 173 -178 279 -255 398 -38
60 -104 161 -145 225 -41 64 -116 181 -167 260 -50 78 -117 183 -149 232 -32
50 -81 126 -109 170 -29 44 -94 145 -145 225 -131 203 -183 285 -286 443 -49
76 -96 149 -104 162 -135 217 -128 206 -205 267 -178 140 -297 230 -300 226
-3 -3 17 -93 50 -228 2 -8 14 -60 25 -115 19 -86 30 -112 78 -188 32 -49 80
-124 107 -167 28 -44 56 -87 62 -97 7 -10 58 -88 112 -173 55 -85 124 -192
153 -238 29 -45 64 -100 78 -123 14 -22 92 -144 174 -272 178 -275 208 -322
401 -622 81 -126 158 -246 170 -265 114 -174 352 -550 361 -570 27 -63 -4
-157 -79 -233 -76 -78 -114 -97 -203 -102 -301 -16 -334 -17 -347 -3 -7 7 -48
58 -92 113 -78 99 -299 376 -322 405 -39 47 -382 483 -403 510 -14 19 -35 45
-46 59 -12 14 -106 134 -208 266 -103 132 -192 247 -199 255 -118 146 -617
809 -617 819 0 5 -4 11 -8 13 -10 4 -160 215 -226 318 -76 119 -182 355 -212
470 -2 8 -15 58 -28 111 -76 290 -99 638 -61 929 4 25 8 59 10 75 2 17 16 73
29 126 88 339 236 496 491 522 53 5 188 -2 260 -14z m15110 0 c168 -39 270
-141 369 -370 19 -45 63 -218 72 -284 3 -27 8 -52 9 -55 6 -11 18 -215 18
-310 0 -87 -10 -246 -17 -287 -3 -17 -10 -63 -22 -153 -10 -69 -73 -307 -107
-400 -56 -154 -122 -281 -226 -438 -92 -138 -404 -561 -607 -823 -49 -64 -100
-131 -114 -149 -40 -53 -290 -373 -308 -395 -10 -11 -28 -36 -42 -55 -14 -19
-32 -44 -42 -55 -9 -11 -139 -175 -289 -365 -149 -190 -283 -358 -296 -375
-29 -36 -13 -15 -203 -255 -85 -107 -160 -201 -167 -208 -13 -13 -109 -12
-353 4 -85 5 -123 25 -201 106 -69 70 -95 140 -82 210 3 14 83 146 178 294 96
148 197 305 225 349 27 44 79 125 115 180 35 55 92 143 125 195 34 52 118 184
188 292 116 181 163 254 291 453 24 39 73 115 109 170 102 158 171 265 257
400 44 69 104 162 132 206 47 72 69 128 87 219 2 14 20 90 40 170 19 79 33
146 31 148 -2 2 -86 -60 -187 -138 -153 -118 -189 -152 -223 -204 -22 -34 -74
-115 -115 -180 -41 -64 -115 -179 -165 -256 -49 -77 -111 -172 -137 -212 -213
-334 -275 -431 -309 -481 -21 -32 -39 -59 -39 -61 0 -2 -31 -50 -68 -107 -69
-105 -205 -317 -365 -567 -48 -75 -114 -177 -146 -227 -31 -49 -110 -172 -175
-272 -103 -160 -122 -184 -160 -202 -75 -37 -184 -21 -296 43 -47 27 -42 19
-196 317 l-44 85 43 85 c24 46 126 246 227 444 100 198 213 419 250 490 37 72
109 211 160 310 51 99 114 221 140 270 26 50 78 149 115 220 132 253 243 461
398 745 171 315 333 578 417 679 343 412 961 762 1425 808 33 3 61 7 63 8 7 6
174 -6 217 -16z m-17920 -2573 c55 -3 115 -8 133 -11 17 -3 44 -7 60 -9 186
-27 420 -92 602 -168 246 -104 405 -204 600 -377 148 -132 981 -971 1315
-1326 41 -44 175 -184 457 -480 42 -44 95 -100 118 -125 82 -88 326 -346 403
-425 92 -95 89 -56 28 -359 l-28 -140 -189 -63 c-104 -35 -194 -62 -201 -61
-7 2 -38 26 -70 55 -49 43 -497 431 -573 497 -54 46 -175 151 -180 156 -3 3
-70 62 -150 130 -80 69 -147 127 -150 130 -3 3 -36 32 -75 65 -38 33 -86 74
-105 91 -19 18 -141 123 -270 234 -129 111 -248 214 -265 229 -16 14 -97 84
-180 156 -82 71 -157 136 -166 144 -65 63 -132 110 -188 132 -36 14 -75 30
-86 34 -11 5 -22 9 -25 10 -3 1 -14 5 -25 10 -146 59 -235 92 -235 87 0 -21
226 -402 253 -427 40 -37 107 -95 177 -155 29 -25 58 -50 64 -55 6 -6 61 -53
121 -105 61 -52 112 -97 115 -100 3 -3 55 -48 115 -100 61 -52 115 -99 121
-105 6 -5 36 -31 65 -56 184 -159 318 -275 344 -298 17 -14 77 -67 135 -116
58 -50 107 -92 110 -96 4 -4 360 -313 604 -523 32 -28 64 -56 70 -61 6 -6 49
-43 96 -84 126 -109 151 -132 146 -139 -2 -4 -7 -23 -10 -42 -3 -19 -13 -73
-21 -120 -9 -47 -18 -103 -21 -125 -4 -22 -11 -55 -18 -74 -11 -33 -15 -35
-196 -97 -102 -35 -191 -64 -199 -64 -15 0 -214 139 -1039 724 -339 240 -437
311 -474 338 -9 7 -133 97 -275 200 -295 214 -465 339 -508 372 -16 13 -79 61
-140 107 -375 282 -526 421 -664 612 -107 148 -240 391 -290 527 -7 19 -17 44
-22 55 -12 28 -65 184 -74 220 -5 17 -9 35 -11 40 -1 6 -14 64 -28 130 -77
373 -40 671 103 815 103 104 273 167 501 186 36 3 66 6 67 7 2 3 116 -1 228
-7z m20638 3 c71 -2 115 -7 203 -23 63 -12 171 -49 227 -79 219 -115 297 -368
243 -787 -2 -14 -11 -61 -20 -105 -9 -44 -18 -90 -21 -103 -6 -34 -46 -165
-56 -184 -5 -10 -9 -22 -9 -28 0 -22 -76 -202 -136 -322 -141 -283 -296 -488
-505 -668 -231 -200 -1153 -880 -1982 -1462 -184 -129 -695 -490 -712 -502
-11 -8 -38 -28 -60 -44 l-40 -29 -125 44 c-69 24 -160 55 -202 69 -43 15 -77
29 -76 33 1 3 -3 35 -10 71 -7 36 -14 79 -17 95 -3 17 -12 64 -20 105 -24 127
-24 124 22 163 23 19 48 41 56 48 8 8 27 25 43 38 37 31 320 277 399 346 59
52 147 127 195 169 40 34 861 745 906 785 71 62 152 132 359 311 110 95 224
194 253 219 49 43 67 67 119 161 11 19 34 60 50 90 17 30 50 86 72 125 23 38
41 73 41 76 0 4 -99 -32 -219 -80 -220 -86 -249 -103 -345 -196 -12 -11 -37
-33 -56 -49 -19 -16 -62 -52 -95 -81 -33 -29 -114 -99 -180 -156 -66 -57 -125
-108 -131 -114 -6 -5 -40 -35 -75 -65 -35 -30 -86 -75 -114 -99 -27 -24 -61
-53 -75 -65 -54 -46 -487 -420 -515 -445 -54 -47 -327 -284 -445 -386 -63 -54
-117 -102 -120 -105 -3 -3 -84 -73 -180 -155 -96 -83 -178 -154 -182 -160 -7
-10 -69 8 -293 85 l-110 37 -12 59 c-11 56 -15 76 -28 149 -3 17 -10 53 -16
81 -5 28 -12 63 -15 79 -3 15 -6 31 -7 35 -1 4 61 74 138 155 77 82 157 167
178 189 21 23 93 99 160 170 67 71 139 147 161 170 21 23 109 115 196 206 86
91 179 188 206 217 377 398 1129 1157 1298 1311 115 105 276 232 294 232 6 0
12 3 14 8 6 14 228 130 333 174 123 51 389 130 485 144 19 3 41 7 48 10 8 2
37 7 65 10 29 3 59 8 67 10 8 3 73 8 145 11 71 3 132 7 134 9 2 2 7 2 10 -1 4
-2 42 -5 84 -6z m-9958 -1593 c22 -2 83 -7 135 -11 96 -6 134 -10 225 -19 135
-15 232 -26 250 -30 11 -2 43 -7 70 -10 28 -4 66 -10 85 -12 658 -94 1444
-327 2115 -629 382 -171 935 -484 1240 -700 324 -229 616 -455 761 -590 6 -5
45 -39 85 -75 93 -82 484 -469 564 -559 33 -37 90 -100 127 -141 225 -253 587
-737 765 -1026 240 -388 429 -750 587 -1119 43 -99 81 -189 86 -200 21 -47
141 -380 178 -495 56 -171 126 -417 167 -585 67 -276 134 -637 170 -920 10
-82 20 -178 31 -300 3 -44 8 -93 10 -110 24 -253 24 -889 0 -1225 -7 -95 -18
-208 -21 -230 -3 -14 -7 -52 -10 -85 -5 -62 -12 -122 -20 -165 -2 -14 -7 -52
-11 -85 -3 -33 -8 -62 -9 -65 -2 -3 -6 -30 -10 -60 -3 -30 -11 -74 -16 -98 -5
-23 -12 -59 -15 -80 -9 -56 -59 -299 -68 -330 -3 -9 -8 -31 -11 -49 -3 -18
-10 -45 -16 -60 -6 -15 -10 -29 -9 -31 3 -5 -13 -69 -47 -192 -19 -69 -38
-138 -43 -155 -28 -103 -129 -415 -157 -485 -4 -8 -7 -17 -8 -20 -1 -3 -5 -14
-10 -25 -4 -11 -27 -71 -51 -133 -257 -668 -629 -1337 -1064 -1917 -111 -147
-320 -410 -339 -425 -3 -3 -28 -32 -56 -65 -206 -245 -689 -713 -975 -945 -30
-25 -57 -47 -60 -50 -3 -3 -52 -42 -110 -85 -58 -44 -107 -82 -110 -86 -19
-22 -457 -321 -577 -395 -62 -37 -248 -149 -268 -160 -199 -112 -509 -271
-645 -332 -515 -230 -933 -376 -1435 -501 -138 -34 -446 -100 -540 -115 -16
-3 -70 -12 -120 -20 -49 -8 -108 -17 -130 -20 -66 -9 -128 -17 -155 -21 -47
-7 -115 -15 -170 -20 -30 -3 -80 -7 -110 -10 -77 -8 -156 -13 -295 -22 -158
-9 -739 -9 -885 0 -226 15 -367 26 -410 32 -14 2 -52 7 -85 10 -33 4 -105 13
-160 20 -55 8 -122 17 -150 20 -27 4 -57 8 -65 10 -8 3 -32 7 -54 11 -21 3
-48 8 -60 10 -11 2 -37 7 -56 10 -546 92 -1247 308 -1825 564 -139 61 -477
227 -590 290 -177 98 -341 194 -435 254 -259 167 -506 340 -650 453 -175 138
-329 267 -465 387 -82 72 -528 515 -601 596 -211 235 -454 539 -623 780 -52
74 -216 319 -236 352 -5 9 -32 53 -60 98 -27 45 -63 105 -78 134 -16 28 -36
62 -45 76 -40 61 -127 224 -226 425 -146 295 -247 532 -358 835 -33 91 -61
170 -62 175 -1 6 -19 60 -39 122 -30 92 -88 293 -137 473 -12 45 -68 287 -74
320 -2 14 -14 71 -25 126 -11 56 -25 130 -31 165 -5 35 -12 73 -14 84 -2 11
-7 42 -10 68 -4 27 -9 56 -10 65 -2 10 -7 43 -11 76 -3 32 -8 68 -10 80 -2 11
-6 52 -10 89 -3 37 -8 76 -10 86 -2 9 -6 57 -10 107 -4 49 -8 100 -10 114 -26
174 -26 1000 0 1260 2 19 6 69 10 110 3 41 7 91 10 110 2 19 7 60 10 90 7 61
14 122 20 160 2 14 7 45 10 70 3 25 12 83 20 130 8 47 16 101 19 120 5 29 26
140 52 270 96 478 285 1070 499 1562 159 365 424 862 597 1120 21 31 38 59 38
62 0 9 226 332 308 441 84 112 243 314 283 360 350 404 590 646 954 964 17 15
77 65 135 111 58 47 107 88 110 91 3 3 78 61 168 128 270 203 636 441 917 597
39 21 88 49 110 61 54 30 403 203 490 243 322 148 762 310 1105 409 157 45
370 100 415 107 22 3 43 8 46 10 7 4 129 31 179 40 14 2 45 9 70 14 49 10 251
45 315 55 23 3 50 7 60 9 11 2 45 7 75 11 30 3 66 8 80 10 14 2 54 6 90 10 36
4 76 8 90 10 14 2 57 6 95 10 39 3 93 8 120 10 28 3 99 7 159 10 60 3 111 7
113 9 5 5 799 -2 848 -8z m-12210 -1629 c11 -3 49 -8 85 -12 99 -11 272 -51
389 -91 89 -30 373 -165 541 -256 25 -13 81 -44 125 -68 70 -38 411 -227 565
-313 30 -17 145 -82 255 -145 110 -63 215 -123 234 -134 231 -132 407 -233
501 -288 63 -37 131 -77 150 -87 32 -18 146 -85 600 -351 80 -47 165 -96 190
-110 65 -36 90 -61 112 -112 37 -85 16 -208 -64 -362 -68 -132 -160 -211 -246
-210 -42 1 -66 10 -308 123 -33 15 -188 86 -345 157 -156 72 -313 143 -349
160 -36 16 -85 39 -110 50 -25 11 -79 36 -120 55 -115 53 -184 84 -247 113
-97 44 -484 220 -558 254 -38 18 -113 51 -165 75 -52 24 -129 59 -170 78 -41
19 -127 58 -190 87 -63 29 -149 68 -190 87 -128 60 -212 90 -294 107 -141 29
-268 15 -274 -31 -5 -33 31 -93 90 -149 110 -105 142 -124 423 -252 110 -50
234 -106 275 -125 41 -19 102 -47 135 -62 55 -25 191 -87 340 -155 33 -15 112
-51 175 -80 63 -29 144 -66 180 -82 36 -17 164 -75 285 -130 121 -56 281 -129
355 -163 74 -34 302 -137 505 -229 310 -141 376 -175 406 -207 78 -84 66 -224
-37 -419 -68 -130 -153 -200 -241 -200 -31 0 -369 108 -603 193 -8 3 -64 22
-125 42 -178 60 -433 147 -695 238 -135 47 -312 108 -395 137 -82 28 -159 55
-170 60 -11 5 -148 54 -305 110 -932 333 -1169 437 -1410 621 -162 123 -341
304 -460 464 -25 33 -47 62 -50 65 -25 22 -160 250 -213 357 -30 61 -121 303
-117 311 1 1 -4 26 -10 55 -66 322 65 527 439 686 39 17 71 28 71 25 0 -2 12
2 28 9 28 15 255 71 329 82 86 12 110 15 178 21 39 4 71 8 73 9 5 4 406 -4
427 -8z m24010 -6 c55 -6 120 -16 145 -21 25 -5 56 -12 70 -14 171 -29 398
-115 530 -200 241 -156 306 -363 215 -680 -149 -511 -601 -1063 -1082 -1322
-32 -17 -92 -46 -133 -64 -41 -18 -88 -38 -105 -45 -45 -20 -307 -122 -415
-162 -52 -19 -129 -48 -170 -63 -41 -16 -196 -72 -345 -125 -148 -53 -283
-101 -300 -108 -16 -6 -34 -12 -40 -13 -5 -2 -68 -23 -140 -49 -133 -48 -535
-188 -660 -230 -38 -13 -135 -46 -215 -74 -672 -230 -889 -301 -924 -301 -92
0 -178 75 -251 220 -52 105 -74 179 -76 258 -2 68 25 136 64 163 12 8 114 57
227 109 113 51 248 113 300 138 52 24 104 47 115 52 20 8 1006 458 1155 527
41 19 114 52 162 74 48 21 95 42 105 47 19 10 40 20 228 105 66 30 149 68 185
85 36 16 121 56 190 87 69 31 141 64 160 73 155 70 330 235 330 309 0 84 -282
64 -490 -33 -30 -15 -203 -94 -385 -176 -181 -83 -372 -170 -424 -194 -51 -24
-95 -44 -96 -44 -3 0 -88 -39 -225 -102 -36 -17 -168 -77 -295 -135 -126 -57
-252 -115 -280 -128 -27 -13 -75 -34 -105 -48 -61 -27 -277 -126 -355 -162
-27 -13 -153 -70 -280 -128 -126 -57 -256 -117 -289 -132 -140 -64 -245 -7
-346 186 -57 111 -80 189 -81 277 -1 64 23 115 72 153 19 15 237 145 484 289
248 144 479 279 515 300 197 115 667 385 765 440 22 12 69 39 105 60 71 41
103 59 195 110 33 18 74 40 90 50 33 19 119 67 205 113 30 16 60 33 65 37 6 4
48 27 95 52 47 25 121 65 165 88 350 188 496 251 710 306 17 4 32 8 35 9 3 0
28 5 55 10 28 4 57 10 65 11 163 31 503 39 705 15z m-24755 -3535 c14 -2 43
-7 65 -10 22 -4 51 -8 65 -11 14 -2 36 -7 50 -9 42 -7 244 -46 265 -51 11 -3
74 -17 140 -30 66 -14 158 -34 205 -45 47 -10 137 -31 200 -45 131 -30 148
-34 475 -111 132 -31 247 -57 255 -59 8 -2 51 -12 95 -24 44 -11 91 -22 105
-25 14 -2 165 -39 335 -80 403 -99 395 -97 430 -107 37 -10 352 -88 380 -93
11 -2 40 -9 65 -16 25 -7 52 -13 60 -15 69 -14 268 -69 289 -80 33 -17 63 -50
87 -95 16 -29 19 -56 18 -160 0 -69 -3 -136 -6 -150 -36 -177 -112 -277 -215
-282 -36 -2 -140 8 -173 17 -8 2 -37 6 -65 10 -47 5 -67 8 -139 20 -16 2 -50
7 -75 11 -25 3 -56 7 -67 9 -12 2 -48 7 -80 11 -33 4 -61 9 -64 9 -3 1 -32 5
-65 9 -33 5 -69 10 -80 12 -11 3 -38 7 -60 9 -22 3 -51 7 -65 10 -14 2 -52 7
-85 11 -33 3 -62 8 -65 9 -3 2 -33 7 -65 10 -33 4 -63 9 -66 11 -3 1 -37 6
-75 9 -38 4 -72 9 -75 11 -3 1 -32 6 -65 9 -32 4 -61 8 -64 10 -3 2 -34 6 -70
10 -35 3 -67 8 -70 10 -3 2 -32 6 -65 9 -33 4 -67 8 -75 11 -8 2 -35 6 -60 9
-25 3 -90 12 -145 21 -55 8 -120 18 -145 20 -25 3 -56 8 -70 10 -14 3 -47 7
-75 11 -27 3 -59 8 -69 10 -11 2 -56 8 -100 14 -45 6 -94 13 -111 16 -68 11
-83 13 -160 24 -44 6 -91 12 -105 15 -47 7 -100 15 -152 21 -29 3 -73 10 -96
14 -116 21 -319 0 -408 -41 -96 -46 -60 -113 104 -194 87 -43 181 -68 336 -90
65 -9 128 -18 140 -20 11 -2 42 -6 67 -9 25 -4 57 -9 70 -11 13 -2 92 -13 174
-25 83 -12 159 -23 170 -24 32 -5 97 -15 135 -20 19 -3 116 -17 215 -31 99
-14 196 -28 215 -30 19 -3 46 -7 60 -10 29 -6 87 -14 150 -20 25 -3 68 -9 95
-14 46 -9 75 -13 179 -26 22 -3 51 -7 65 -10 14 -2 46 -7 70 -10 23 -3 55 -7
70 -9 14 -3 46 -8 71 -11 25 -3 56 -8 70 -10 31 -5 164 -25 205 -30 17 -3 50
-7 75 -10 51 -7 93 -13 130 -20 14 -3 48 -7 76 -10 28 -3 59 -7 70 -9 24 -5
87 -14 139 -21 23 -3 50 -7 60 -9 11 -2 47 -7 80 -12 33 -4 63 -8 68 -10 4 -1
17 -2 30 -3 13 0 41 -13 64 -28 66 -43 101 -134 97 -253 -7 -225 -83 -390
-193 -420 -35 -9 -115 -8 -406 5 -66 3 -169 8 -230 10 -186 7 -387 16 -450 20
-33 2 -132 6 -220 10 -88 3 -190 8 -227 10 -37 3 -125 7 -195 10 -70 3 -155 7
-188 9 -33 3 -123 7 -200 11 -77 3 -160 8 -185 10 -25 2 -97 6 -160 10 -63 3
-135 8 -160 10 -25 3 -90 7 -145 10 -55 3 -122 7 -150 9 -27 3 -86 8 -130 11
-130 10 -295 24 -345 30 -19 3 -55 7 -80 10 -105 12 -138 18 -200 32 -36 8
-69 16 -75 17 -83 19 -245 81 -373 142 -515 246 -992 725 -1068 1071 -11 52
-12 164 -3 196 6 18 12 37 13 42 35 124 203 309 398 438 178 119 364 207 593
282 179 59 360 98 515 111 41 4 76 8 78 9 5 4 316 -3 342 -9z m25375 1 c11 -3
45 -8 75 -12 58 -8 79 -11 120 -20 14 -3 36 -7 49 -10 247 -47 596 -188 816
-330 118 -76 164 -113 255 -204 217 -218 250 -403 119 -666 -136 -272 -482
-610 -829 -808 -188 -108 -461 -221 -583 -242 -18 -3 -48 -10 -67 -15 -19 -5
-57 -11 -85 -14 -27 -4 -61 -8 -75 -11 -23 -4 -62 -8 -181 -20 -26 -2 -84 -7
-130 -10 -46 -4 -100 -8 -119 -10 -19 -2 -80 -6 -135 -10 -55 -3 -120 -8 -145
-10 -25 -3 -90 -7 -145 -10 -55 -3 -131 -7 -170 -10 -157 -11 -290 -18 -545
-30 -52 -2 -135 -7 -185 -10 -49 -3 -137 -7 -195 -10 -58 -2 -157 -7 -220 -10
-63 -3 -162 -8 -220 -10 -58 -2 -154 -7 -215 -9 -60 -3 -168 -8 -240 -11 -71
-3 -177 -8 -235 -10 -419 -19 -417 -19 -481 46 -45 46 -63 83 -90 189 -52 198
-20 380 74 434 41 23 66 29 172 42 28 3 57 7 65 9 8 2 35 7 60 10 25 3 56 8
70 10 14 2 45 7 70 10 46 6 60 8 140 20 75 11 93 14 140 20 25 3 56 8 70 10
14 2 77 11 140 20 63 9 126 18 139 20 13 2 45 7 70 11 59 8 74 10 201 28 58 9
125 18 149 21 23 3 55 7 70 10 65 11 90 14 146 21 33 3 62 8 65 9 3 2 33 6 65
10 33 3 67 8 75 10 8 2 38 7 65 10 28 3 62 8 77 11 15 3 41 7 58 9 34 5 101
14 140 20 14 2 45 6 70 10 25 3 56 8 70 10 14 2 45 7 70 10 25 4 56 8 70 10
31 5 108 16 135 20 11 1 58 8 105 14 47 7 101 14 120 17 19 3 46 7 60 9 31 6
83 13 133 20 179 21 427 145 427 212 0 41 -65 75 -195 102 -48 10 -258 9 -300
-2 -24 -6 -81 -14 -150 -23 -27 -3 -59 -8 -70 -9 -208 -31 -253 -38 -370 -55
-33 -5 -82 -12 -110 -15 -27 -3 -61 -8 -75 -10 -14 -3 -43 -7 -65 -10 -22 -3
-51 -8 -65 -10 -14 -3 -47 -7 -75 -10 -27 -4 -75 -10 -105 -15 -30 -5 -75 -12
-100 -15 -25 -3 -56 -8 -70 -10 -14 -3 -47 -7 -75 -10 -27 -3 -57 -8 -65 -10
-8 -2 -37 -7 -65 -10 -27 -3 -61 -7 -75 -10 -14 -2 -45 -7 -70 -10 -25 -3 -52
-8 -60 -10 -8 -2 -42 -7 -75 -10 -32 -4 -62 -8 -65 -10 -3 -1 -36 -6 -75 -10
-38 -4 -72 -8 -75 -10 -3 -2 -34 -6 -70 -10 -36 -4 -67 -8 -70 -10 -3 -2 -34
-6 -70 -10 -36 -4 -67 -8 -70 -10 -3 -2 -29 -6 -59 -10 -30 -4 -61 -8 -70 -10
-9 -1 -43 -6 -76 -9 -33 -4 -67 -9 -75 -11 -17 -4 -59 -11 -135 -20 -55 -7
-218 -31 -280 -41 -76 -12 -110 -11 -145 3 -107 44 -174 198 -179 411 -1 49 3
109 9 135 21 81 91 142 184 162 15 3 37 7 51 10 13 3 36 10 50 15 14 5 25 8
25 5 0 -2 15 1 33 6 17 6 39 12 47 14 36 9 146 36 160 40 37 9 267 66 280 70
8 1 166 40 350 85 184 45 342 83 350 85 21 5 102 25 120 30 56 15 1017 239
1140 265 47 10 119 26 160 35 89 20 87 19 219 46 57 11 116 23 130 25 14 3 73
14 131 25 58 11 134 22 170 26 36 3 66 6 68 8 5 4 325 -4 347 -8z m-22081
-3456 c72 -45 120 -149 143 -306 11 -75 7 -187 -7 -231 -33 -100 -82 -135
-215 -154 -44 -6 -91 -13 -105 -15 -14 -2 -47 -7 -75 -10 -27 -3 -61 -8 -75
-10 -14 -3 -43 -7 -65 -11 -22 -3 -51 -7 -65 -9 -14 -2 -45 -6 -70 -10 -25 -3
-56 -8 -70 -10 -14 -2 -45 -7 -70 -10 -25 -4 -90 -13 -145 -21 -55 -8 -118
-17 -140 -20 -22 -3 -114 -16 -205 -30 -91 -13 -178 -26 -195 -29 -16 -2 -52
-7 -80 -11 -27 -3 -59 -8 -70 -10 -11 -2 -42 -6 -70 -10 -27 -3 -90 -11 -140
-19 -105 -16 -142 -22 -210 -31 -27 -3 -52 -7 -55 -9 -3 -2 -34 -6 -70 -10
-36 -4 -72 -9 -81 -10 -9 -2 -40 -6 -69 -10 -29 -4 -61 -8 -72 -10 -10 -2 -69
-11 -131 -20 -62 -8 -121 -17 -133 -19 -12 -2 -45 -7 -75 -11 -30 -3 -112 -15
-184 -26 -71 -11 -154 -22 -184 -25 -203 -19 -471 -146 -471 -223 0 -63 169
-113 365 -106 55 2 111 6 125 9 14 2 61 10 105 16 103 15 134 19 165 25 14 2
50 7 80 10 30 3 62 8 70 10 8 2 40 7 70 10 30 3 62 8 70 10 8 2 39 7 69 10 30
4 61 8 70 10 29 5 96 15 216 31 28 3 57 7 65 9 15 3 143 21 210 31 33 4 58 8
125 19 17 3 50 7 75 10 25 3 59 7 75 10 69 10 98 14 138 20 54 7 117 16 141
21 10 2 44 6 75 9 31 4 63 8 71 10 8 2 38 7 65 10 28 4 57 8 65 10 8 3 40 7
70 10 30 3 62 8 70 10 8 2 40 7 70 10 30 3 62 8 70 10 8 2 40 7 70 10 30 3 62
8 70 10 8 2 40 7 70 10 30 3 62 8 70 10 8 2 38 7 65 10 28 3 79 10 115 16 36
5 76 12 90 14 14 2 44 6 67 10 81 13 119 13 157 0 117 -41 188 -211 183 -440
-2 -90 -7 -117 -24 -151 -27 -52 -73 -90 -121 -104 -64 -17 -126 -33 -142 -36
-8 -1 -152 -37 -320 -79 -330 -82 -746 -185 -770 -190 -8 -2 -35 -8 -60 -15
-25 -7 -53 -14 -62 -15 -10 -2 -73 -17 -140 -34 -344 -84 -425 -103 -443 -106
-11 -1 -78 -17 -150 -34 -178 -44 -522 -122 -593 -135 -12 -3 -30 -7 -40 -10
-9 -3 -28 -7 -42 -10 -14 -3 -36 -7 -50 -10 -14 -3 -47 -10 -75 -16 -27 -6
-59 -12 -70 -14 -26 -6 -211 -43 -250 -51 -178 -35 -284 -48 -425 -50 -168 -2
-278 9 -485 50 -205 40 -500 148 -688 252 -399 220 -606 471 -582 709 8 88 60
228 118 318 36 57 104 155 127 181 254 298 594 545 954 695 101 42 298 103
371 114 56 9 171 24 230 30 201 21 245 25 335 31 41 3 107 7 145 10 39 3 104
8 145 10 41 3 102 7 135 10 97 7 341 21 515 30 81 4 201 11 375 20 44 2 139 7
210 10 72 3 162 8 200 10 39 2 135 7 215 10 80 3 188 7 240 10 132 6 310 14
475 20 76 3 140 7 141 8 1 1 62 2 136 2 123 0 136 -2 172 -24z m18811 14 c55
-2 165 -7 245 -10 322 -14 576 -25 675 -30 39 -2 129 -6 200 -10 180 -8 293
-14 410 -20 55 -3 138 -8 185 -10 47 -2 121 -7 165 -10 44 -3 125 -7 180 -10
55 -3 123 -8 150 -10 28 -2 95 -7 150 -10 55 -3 123 -8 150 -10 28 -3 86 -7
130 -10 206 -15 301 -25 465 -46 299 -38 602 -159 910 -364 69 -46 139 -96
157 -112 17 -15 56 -47 85 -70 61 -48 224 -213 284 -288 146 -181 231 -361
239 -512 13 -229 -201 -479 -591 -691 -203 -110 -526 -224 -729 -258 -11 -1
-47 -7 -80 -13 -33 -5 -85 -13 -115 -17 -79 -10 -325 -11 -390 -2 -30 4 -77
10 -105 13 -27 4 -66 10 -85 15 -19 5 -53 11 -75 14 -22 3 -96 17 -165 31 -69
15 -136 29 -150 31 -14 3 -53 11 -86 19 -34 8 -73 16 -85 19 -13 2 -107 23
-209 46 -102 23 -212 48 -245 55 -33 7 -107 25 -165 38 -58 14 -193 47 -300
72 -339 80 -433 103 -768 186 -180 44 -334 82 -342 84 -122 26 -722 181 -742
191 -42 21 -86 82 -99 138 -36 148 13 392 98 486 61 68 93 74 263 50 206 -29
213 -30 240 -35 14 -3 48 -7 75 -10 28 -3 61 -8 75 -10 31 -6 64 -11 165 -25
44 -6 91 -13 105 -15 14 -2 41 -6 60 -9 19 -2 69 -9 110 -15 41 -7 89 -13 105
-15 17 -2 46 -7 65 -10 19 -3 51 -8 70 -10 30 -4 328 -46 430 -61 19 -3 46 -7
60 -10 14 -2 45 -7 70 -10 25 -2 59 -7 75 -10 61 -10 91 -15 150 -21 33 -3 62
-7 65 -9 3 -2 30 -6 60 -10 30 -3 62 -8 70 -10 8 -2 40 -7 70 -10 30 -3 62 -8
70 -10 8 -2 56 -9 105 -16 121 -15 129 -16 177 -24 24 -4 54 -8 68 -10 14 -2
41 -6 60 -9 19 -3 82 -12 140 -20 58 -9 128 -19 155 -23 60 -9 234 -9 290 -1
97 15 175 50 195 88 9 17 4 26 -33 63 -78 77 -242 142 -422 167 -99 14 -133
19 -165 25 -14 2 -47 7 -75 10 -27 3 -75 10 -105 15 -30 5 -77 12 -105 15 -27
4 -90 12 -140 20 -49 7 -114 17 -144 20 -30 4 -63 9 -75 11 -27 5 -136 21
-201 29 -27 3 -61 8 -75 10 -14 3 -43 7 -65 10 -22 3 -51 8 -65 10 -14 3 -47
7 -75 10 -27 3 -61 8 -75 10 -14 3 -43 7 -65 10 -22 3 -51 8 -65 10 -14 3 -47
7 -75 11 -27 3 -57 8 -66 9 -9 2 -40 6 -69 10 -29 4 -62 9 -74 11 -12 2 -41 7
-66 10 -25 3 -56 7 -70 9 -51 8 -246 37 -265 40 -11 1 -47 6 -80 10 -33 4 -69
9 -80 11 -11 2 -40 6 -65 9 -25 3 -56 8 -70 10 -14 3 -43 7 -65 10 -22 3 -51
8 -65 10 -14 3 -47 7 -75 11 -52 6 -83 10 -125 18 -14 3 -47 8 -75 11 -27 4
-65 8 -83 11 -166 21 -219 165 -166 454 19 109 82 211 147 241 44 20 67 20
442 4z m-464 -2716 c400 -136 624 -213 869 -297 80 -28 198 -69 264 -92 572
-197 1220 -434 1535 -560 199 -80 272 -113 371 -171 127 -74 112 -64 235 -160
418 -327 774 -873 831 -1278 7 -48 8 -185 1 -211 -15 -60 -23 -80 -44 -118
-39 -72 -74 -110 -154 -171 -89 -68 -290 -166 -379 -186 -8 -2 -49 -12 -90
-23 -221 -59 -403 -80 -670 -76 -96 1 -195 5 -220 8 -284 42 -393 69 -565 138
-84 34 -509 249 -550 278 -5 4 -55 31 -110 60 -55 30 -152 83 -215 118 -63 36
-133 74 -155 86 -22 12 -60 34 -85 48 -25 14 -187 107 -360 206 -173 98 -355
202 -404 231 -49 28 -90 51 -91 51 -1 0 -42 24 -91 53 -49 29 -96 56 -104 60
-8 5 -24 13 -35 20 -11 7 -58 35 -105 62 -47 28 -92 55 -101 60 -9 6 -56 33
-104 60 -47 28 -94 55 -104 60 -9 6 -66 39 -126 74 -444 261 -409 237 -437
299 -33 73 -25 154 29 292 90 227 231 327 368 262 41 -20 159 -74 680 -312
160 -73 328 -150 373 -171 46 -22 85 -39 87 -39 2 0 43 -19 92 -41 48 -23 115
-54 148 -69 69 -32 647 -295 900 -410 94 -43 199 -91 235 -108 348 -163 442
-193 595 -189 90 3 125 17 125 50 0 31 -48 103 -101 153 -96 90 -156 125 -404
238 -66 30 -149 67 -185 84 -36 16 -117 53 -180 82 -63 29 -142 65 -175 80
-145 66 -285 130 -340 155 -33 15 -87 40 -120 55 -60 28 -77 36 -295 135 -190
86 -207 94 -408 186 -106 49 -286 131 -400 183 -583 264 -570 257 -599 325
-32 74 -11 203 53 333 77 158 142 221 249 240 28 6 40 2 466 -143z m-17790
112 c62 -40 91 -74 142 -171 51 -96 73 -156 85 -233 11 -67 -7 -149 -39 -184
-23 -25 -124 -76 -334 -170 -55 -24 -127 -57 -160 -73 -79 -37 -188 -87 -250
-115 -313 -142 -759 -346 -834 -381 -51 -24 -95 -44 -96 -44 -4 0 -45 -19
-210 -95 -44 -20 -179 -82 -300 -137 -121 -55 -247 -113 -280 -128 -128 -59
-204 -95 -319 -147 -66 -30 -150 -74 -187 -98 -90 -60 -196 -174 -204 -219 -9
-45 -3 -53 48 -67 39 -10 183 -7 218 6 8 2 25 6 39 9 38 6 118 35 190 68 36
17 108 49 160 73 52 24 129 59 170 78 41 19 176 81 300 137 124 57 259 118
300 137 41 19 192 88 335 153 143 65 375 171 515 235 140 64 269 123 285 130
17 7 74 34 129 59 54 25 100 46 102 46 1 0 42 19 91 42 48 23 90 43 93 43 11
3 60 25 160 73 58 27 117 53 129 57 74 23 159 -10 225 -86 79 -93 156 -284
156 -388 -1 -98 -37 -152 -145 -211 -52 -29 -126 -71 -352 -205 -103 -60 -207
-122 -232 -136 -25 -15 -100 -58 -166 -96 -574 -333 -1095 -631 -1310 -751
-49 -27 -106 -58 -125 -69 -19 -11 -62 -35 -95 -53 -33 -18 -82 -45 -110 -60
-201 -113 -583 -307 -687 -348 -69 -28 -228 -76 -291 -87 -12 -3 -44 -9 -72
-14 -128 -25 -253 -35 -435 -36 -243 0 -331 10 -618 71 -68 14 -249 81 -327
120 -289 147 -389 315 -352 597 17 128 100 366 164 469 13 21 23 40 23 42 0
11 93 160 148 237 243 343 548 610 863 758 157 73 750 301 1114 428 55 19 109
38 120 43 27 11 220 80 253 90 15 4 92 31 172 60 80 28 177 62 215 75 39 13
176 60 305 105 423 147 465 161 480 165 32 8 634 216 639 220 2 3 30 5 61 5
45 0 65 -6 101 -29z m1402 -2458 c35 -12 47 -21 48 -37 0 -12 2 -30 4 -41 2
-11 9 -47 14 -80 11 -61 17 -90 26 -135 3 -14 8 -43 11 -65 3 -22 8 -43 10
-47 3 -4 -10 -20 -27 -35 -18 -15 -40 -35 -49 -43 -8 -8 -79 -69 -155 -135
-77 -65 -153 -131 -170 -146 -16 -15 -86 -76 -155 -135 -69 -59 -127 -110
-130 -113 -3 -4 -66 -58 -140 -121 -123 -105 -186 -160 -230 -200 -9 -8 -43
-37 -75 -65 -33 -27 -62 -52 -65 -56 -5 -6 -42 -38 -155 -134 -32 -27 -82 -70
-110 -95 -29 -25 -81 -70 -116 -101 -35 -31 -201 -175 -369 -320 -168 -145
-319 -277 -337 -294 -31 -30 -56 -71 -225 -370 -15 -27 -28 -53 -28 -56 0 -4
71 21 158 56 163 64 194 76 202 77 26 2 109 61 225 161 77 66 145 125 150 131
6 6 55 49 110 96 55 47 105 89 111 95 14 13 35 31 219 190 83 72 164 142 180
156 54 47 211 183 241 209 60 51 270 234 304 263 19 17 84 74 145 126 60 52
112 97 115 100 3 3 32 29 65 56 33 28 67 57 75 65 9 8 97 85 196 170 98 85
190 165 204 178 14 12 34 25 45 28 11 2 103 -24 204 -58 l185 -63 28 -140 c41
-207 49 -264 41 -279 -5 -8 -72 -81 -149 -162 -78 -82 -156 -165 -174 -184
-28 -31 -87 -92 -342 -362 -29 -31 -118 -124 -198 -208 -80 -84 -169 -177
-198 -208 -185 -196 -524 -543 -822 -842 -467 -468 -546 -541 -699 -643 -47
-31 -91 -62 -98 -67 -25 -20 -283 -139 -376 -174 -55 -20 -159 -52 -234 -72
-141 -37 -142 -37 -213 -49 -25 -4 -54 -9 -65 -11 -11 -2 -47 -7 -80 -10 -33
-3 -71 -8 -85 -10 -36 -6 -310 -6 -340 1 -14 3 -47 7 -75 10 -78 9 -193 43
-271 80 -141 68 -226 187 -259 360 -14 79 -17 104 -17 193 -1 121 15 269 43
392 6 25 13 54 15 66 2 12 17 63 33 115 115 374 314 725 548 965 123 126 457
388 1029 806 113 83 412 299 451 326 10 7 117 83 238 170 233 166 378 269 750
531 127 89 237 167 246 174 8 7 22 17 31 22 75 49 159 108 163 115 3 5 76 -16
163 -46 86 -30 178 -62 205 -71z m14902 45 c50 -35 119 -85 155 -109 63 -44
405 -285 445 -313 11 -8 229 -164 485 -347 256 -182 479 -341 495 -353 17 -12
55 -39 85 -62 30 -22 95 -69 144 -105 449 -327 856 -642 966 -750 255 -250
467 -619 584 -1016 19 -65 37 -129 40 -143 3 -14 8 -36 11 -50 31 -139 47
-399 30 -495 -19 -109 -31 -148 -62 -214 -44 -93 -112 -160 -208 -206 -73 -34
-193 -70 -269 -80 -23 -3 -57 -8 -76 -10 -45 -6 -307 -7 -340 -1 -14 2 -52 7
-85 11 -358 39 -767 182 -1045 364 -71 47 -155 113 -260 205 -53 48 -798 794
-960 962 -140 145 -463 483 -525 548 -16 18 -100 106 -187 197 -86 90 -173
182 -195 205 -149 159 -311 331 -386 408 -48 50 -89 100 -92 111 -3 11 11 108
32 215 l39 195 184 63 c102 34 194 60 205 57 11 -2 36 -19 55 -37 19 -18 82
-73 140 -123 58 -49 107 -92 110 -95 3 -3 68 -59 145 -125 77 -66 142 -122
145 -126 5 -6 296 -256 318 -274 7 -5 21 -17 30 -26 15 -14 147 -128 327 -283
32 -28 66 -58 75 -66 9 -8 79 -69 155 -135 77 -65 142 -122 145 -125 3 -3 55
-48 115 -100 61 -52 124 -107 140 -121 17 -15 115 -101 219 -191 l190 -163
218 -86 c120 -48 218 -84 218 -81 0 2 -13 28 -29 56 -16 28 -36 62 -43 76 -7
14 -45 80 -83 148 l-69 124 -226 195 c-124 107 -236 205 -250 217 -14 11 -92
80 -175 151 -82 72 -163 141 -179 155 -16 14 -37 32 -46 40 -9 8 -61 54 -115
101 -55 47 -226 195 -380 328 -154 134 -291 253 -305 265 -87 74 -246 212
-250 216 -3 3 -86 75 -185 160 -99 85 -185 159 -191 164 -6 6 -7 26 -2 55 4
25 10 64 13 86 4 22 10 56 15 75 4 19 14 72 21 117 l12 81 121 43 c234 82 281
96 291 89 6 -4 51 -36 100 -72z m-13072 -1853 c58 -4 75 -9 110 -37 127 -98
180 -192 156 -280 -8 -31 -176 -299 -484 -773 -39 -60 -109 -170 -156 -242
-46 -73 -105 -165 -131 -205 -25 -40 -65 -102 -88 -138 -22 -36 -63 -99 -90
-140 -27 -41 -83 -129 -125 -195 -42 -66 -138 -217 -215 -335 -76 -118 -168
-260 -203 -315 -197 -305 -192 -295 -232 -503 -2 -13 -7 -32 -10 -42 -3 -10
-8 -27 -10 -37 -2 -10 -10 -47 -19 -83 -8 -35 -13 -66 -11 -68 4 -4 81 52 95
68 3 3 23 19 45 36 22 16 82 62 134 102 l95 74 238 371 c130 205 241 377 245
382 5 6 33 48 62 95 30 47 74 114 97 150 23 36 76 119 118 185 42 66 81 127
87 136 28 40 451 698 469 729 12 19 47 76 80 125 60 91 116 178 219 340 65
102 109 135 183 137 59 1 152 -27 214 -64 49 -29 54 -37 147 -217 l95 -186
-154 -305 c-160 -315 -380 -746 -489 -955 -34 -66 -106 -205 -160 -310 -54
-104 -105 -203 -115 -220 -10 -16 -48 -88 -85 -160 -90 -173 -182 -345 -280
-525 -29 -52 -67 -122 -85 -155 -284 -519 -410 -686 -685 -910 -266 -216 -676
-424 -945 -480 -8 -2 -35 -8 -60 -13 -103 -23 -286 -32 -368 -17 -194 34 -326
167 -407 410 -15 44 -28 86 -30 95 -2 8 -8 33 -13 55 -6 22 -14 63 -18 90 -3
28 -8 53 -10 56 -6 10 -17 221 -17 319 0 86 10 256 17 298 2 9 7 40 10 67 17
120 44 243 80 364 26 83 112 307 127 326 4 6 22 37 40 70 39 71 147 230 277
409 104 142 423 568 432 576 5 4 181 234 212 275 4 6 20 26 36 45 48 60 306
390 328 420 11 16 34 46 52 67 17 21 88 110 157 198 69 88 131 167 138 175
142 178 287 361 345 433 95 119 89 112 147 186 l50 63 145 -6 c80 -4 176 -9
213 -11z m11352 -261 c432 -544 598 -755 785 -994 80 -102 150 -192 157 -200
7 -8 78 -100 158 -205 81 -104 154 -199 163 -210 9 -11 35 -45 57 -75 21 -30
42 -57 45 -60 6 -5 332 -443 387 -520 150 -209 238 -359 301 -510 30 -74 97
-285 106 -337 3 -14 10 -49 16 -77 17 -83 19 -96 29 -175 17 -130 23 -221 23
-361 0 -140 -5 -208 -28 -355 -17 -106 -62 -250 -109 -348 -125 -262 -326
-343 -700 -282 -215 35 -567 182 -810 339 -276 178 -504 401 -658 643 -43 66
-234 398 -250 433 -4 8 -11 22 -17 30 -5 8 -34 60 -63 115 -91 168 -128 238
-157 290 -15 28 -54 102 -87 165 -117 223 -171 326 -215 410 -86 162 -301 581
-558 1085 -67 132 -132 260 -145 285 -13 25 -26 52 -29 60 -3 8 -26 53 -51
100 l-44 85 59 115 c129 253 133 261 189 291 104 58 220 76 281 44 49 -25 57
-35 165 -205 54 -85 131 -204 170 -265 103 -158 747 -1161 765 -1190 21 -34
212 -331 286 -445 34 -52 124 -193 201 -312 l139 -217 182 -141 c99 -77 183
-140 185 -140 5 0 3 11 -49 230 -20 85 -38 165 -40 177 -8 41 -22 67 -106 195
-46 70 -118 183 -161 250 -43 68 -102 159 -130 203 -28 44 -163 253 -299 465
-135 212 -250 390 -255 395 -4 6 -15 22 -23 36 -25 43 -334 524 -340 529 -3 3
-12 17 -20 31 -8 14 -91 145 -185 290 -166 260 -169 265 -169 319 0 76 55 160
151 231 53 40 55 40 161 46 59 3 108 6 109 7 1 1 48 3 105 4 l103 3 220 -277z
m-9010 -945 c174 -51 280 -136 288 -230 4 -42 -1 -60 -126 -484 -36 -121 -81
-274 -100 -340 -20 -66 -48 -160 -62 -210 -15 -49 -38 -128 -51 -175 -14 -47
-27 -92 -29 -100 -3 -8 -11 -37 -19 -65 -8 -27 -85 -288 -171 -580 -86 -291
-165 -559 -175 -595 -10 -36 -48 -165 -84 -287 -75 -258 -75 -259 -81 -379 -5
-112 10 -207 39 -241 18 -21 25 -23 49 -14 77 30 187 192 240 356 23 71 208
696 367 1240 32 110 86 295 120 410 34 116 63 217 65 225 2 8 43 146 90 305
47 160 95 322 106 360 12 39 25 84 30 100 55 188 70 238 84 288 20 70 59 118
114 139 139 55 456 -35 544 -155 49 -66 52 -101 19 -267 -25 -122 -29 -146
-42 -220 -6 -30 -12 -66 -15 -80 -3 -14 -12 -63 -21 -110 -8 -47 -24 -130 -35
-185 -11 -55 -22 -113 -24 -130 -3 -16 -8 -41 -10 -55 -7 -34 -12 -59 -35
-180 -11 -58 -22 -116 -25 -130 -3 -14 -8 -38 -10 -55 -3 -16 -33 -169 -66
-340 -34 -170 -63 -320 -65 -332 -2 -13 -6 -33 -9 -45 -15 -72 -56 -277 -60
-300 -3 -14 -16 -77 -29 -140 -14 -62 -34 -158 -46 -214 -28 -138 -25 -121
-65 -299 -20 -88 -40 -176 -45 -195 -5 -19 -11 -46 -14 -60 -10 -56 -58 -230
-87 -314 -34 -99 -144 -331 -169 -356 -3 -3 -14 -21 -24 -40 -101 -181 -393
-502 -601 -661 -341 -260 -661 -363 -856 -276 -204 91 -390 353 -511 722 -16
50 -31 97 -33 105 -54 218 -77 344 -90 500 -6 69 -7 368 -1 395 2 11 7 47 11
80 12 108 43 236 90 380 120 358 349 960 687 1805 105 261 199 498 210 525 10
28 25 64 32 80 13 27 140 340 253 620 71 177 100 210 201 230 64 13 144 5 247
-26z m6405 6 c63 -33 51 -9 327 -690 69 -170 131 -323 138 -340 8 -16 46 -111
85 -210 39 -99 75 -189 80 -200 18 -38 257 -650 364 -930 59 -154 111 -289
116 -300 9 -21 118 -319 151 -415 75 -214 123 -389 144 -525 4 -22 8 -137 10
-255 4 -265 -10 -395 -76 -667 -17 -73 -76 -256 -98 -308 -129 -296 -275 -489
-425 -563 -84 -42 -120 -50 -212 -47 -491 16 -1216 673 -1459 1322 -38 99
-141 493 -170 644 -4 20 -25 119 -30 139 -7 29 -15 70 -19 90 -6 37 -45 219
-56 265 -6 22 -12 51 -14 65 -2 14 -30 151 -61 305 -31 154 -59 291 -61 305
-3 14 -14 72 -25 130 -11 58 -23 116 -25 130 -21 112 -47 244 -56 290 -6 30
-12 62 -13 70 -1 8 -5 29 -9 45 -8 37 -13 64 -26 140 -6 33 -17 92 -25 130
-19 95 -24 124 -31 165 -3 19 -7 42 -9 50 -2 8 -7 31 -10 50 -3 19 -10 58 -15
85 -14 69 -16 79 -51 265 -17 91 -33 183 -34 205 -7 108 83 194 266 256 200
67 365 42 413 -64 8 -17 33 -97 56 -177 22 -80 45 -156 50 -170 5 -14 45 -151
90 -305 45 -154 92 -316 105 -360 22 -73 82 -276 122 -415 8 -30 22 -75 30
-100 8 -25 16 -52 18 -60 2 -8 38 -132 80 -275 42 -143 97 -330 121 -415 25
-85 49 -166 54 -180 5 -14 43 -144 85 -290 84 -290 133 -407 213 -505 54 -67
114 -104 137 -85 31 25 49 100 49 204 0 159 4 144 -176 751 -27 94 -54 184
-58 200 -5 17 -31 107 -58 200 -80 270 -145 490 -273 930 -66 226 -126 430
-134 455 -8 25 -42 140 -76 255 -33 116 -70 239 -81 275 -11 36 -21 73 -24 83
-13 52 -15 65 -18 94 -14 129 187 255 454 286 35 4 119 -12 150 -28z m-3675
-546 c78 -27 140 -82 149 -132 3 -17 6 -741 7 -1607 1 -1668 0 -1647 47 -1781
65 -186 131 -207 196 -64 77 168 74 87 74 1860 0 1470 1 1584 17 1615 50 97
166 140 364 135 210 -5 318 -68 335 -196 3 -19 8 -65 11 -104 4 -38 8 -81 10
-95 2 -14 6 -61 10 -105 4 -44 8 -87 10 -95 2 -8 6 -53 10 -100 4 -47 8 -92
10 -100 2 -8 6 -53 10 -100 4 -47 8 -92 10 -100 2 -8 6 -51 9 -95 4 -44 9 -93
11 -110 3 -16 7 -57 10 -90 7 -86 15 -164 20 -210 2 -22 7 -76 11 -120 3 -44
8 -87 9 -96 2 -8 6 -55 10 -105 4 -49 8 -100 10 -114 3 -14 7 -54 10 -90 8
-102 14 -171 20 -230 2 -30 7 -86 10 -125 3 -38 8 -90 10 -115 3 -25 7 -79 10
-120 3 -41 8 -93 10 -115 2 -22 7 -83 10 -135 4 -52 8 -115 10 -140 2 -25 7
-90 11 -145 3 -55 8 -120 10 -145 9 -120 11 -513 3 -570 -5 -36 -12 -83 -15
-105 -9 -66 -62 -267 -95 -361 -168 -484 -501 -939 -809 -1106 -167 -90 -317
-89 -490 5 -234 127 -491 433 -676 807 -113 229 -173 409 -219 660 -21 115
-23 146 -19 380 4 252 6 283 18 450 4 47 9 117 12 155 2 39 7 95 9 125 6 70
13 155 20 250 3 41 8 98 10 125 7 70 13 148 20 230 3 39 7 88 10 110 2 22 7
72 10 110 3 39 8 91 10 118 12 115 15 146 20 202 3 33 8 85 10 115 3 30 8 78
10 105 3 28 7 73 10 100 9 78 14 129 30 305 15 162 25 258 31 299 2 19 7 67 9
105 3 39 7 80 9 91 2 11 7 54 11 95 3 41 8 86 10 100 2 14 7 61 10 105 8 104
21 153 51 192 30 39 115 82 180 89 27 4 51 8 53 10 2 2 53 2 112 0 80 -2 124
-9 174 -27z"/>
<path d="M15869 23926 c-2 -3 -62 -7 -134 -11 -71 -3 -143 -8 -160 -9 -16 -2
-64 -7 -105 -10 -41 -4 -88 -9 -105 -11 -16 -2 -57 -6 -90 -10 -33 -4 -71 -8
-85 -10 -14 -3 -42 -7 -62 -10 -21 -3 -55 -7 -75 -10 -41 -6 -64 -10 -158 -26
-107 -18 -408 -79 -470 -95 -33 -9 -68 -17 -77 -19 -9 -2 -61 -15 -115 -30
-54 -15 -105 -28 -113 -30 -8 -2 -69 -20 -135 -40 -867 -261 -1677 -671 -2400
-1213 -200 -150 -409 -322 -540 -443 -320 -296 -534 -518 -768 -799 -667 -800
-1163 -1722 -1466 -2725 -50 -165 -138 -519 -167 -669 -2 -11 -10 -55 -19 -96
-8 -41 -17 -91 -20 -110 -3 -19 -10 -60 -15 -90 -12 -75 -19 -121 -31 -210 -5
-41 -12 -93 -15 -115 -7 -47 -9 -71 -19 -185 -3 -47 -8 -95 -10 -107 -20 -125
-28 -883 -12 -1103 18 -245 29 -365 42 -460 2 -14 7 -50 10 -80 3 -30 8 -62
10 -70 2 -8 7 -40 10 -70 3 -30 8 -62 10 -70 2 -8 7 -35 10 -60 10 -70 42
-238 59 -313 9 -37 18 -79 21 -95 4 -22 31 -131 89 -362 36 -141 190 -611 231
-705 7 -16 29 -72 49 -123 208 -534 562 -1173 922 -1664 88 -120 253 -332 309
-397 206 -240 230 -266 415 -456 149 -153 328 -322 460 -436 47 -40 87 -75 90
-78 3 -3 50 -42 105 -87 530 -428 1129 -795 1725 -1058 47 -21 104 -46 128
-57 96 -44 409 -161 582 -218 287 -96 669 -196 930 -245 47 -9 96 -18 110 -21
56 -11 198 -35 240 -40 25 -3 56 -7 70 -10 14 -2 43 -7 65 -9 22 -3 63 -8 91
-11 28 -4 68 -8 90 -10 84 -7 177 -16 206 -20 203 -26 1120 -26 1258 0 8 1 53
6 100 10 47 4 92 9 100 10 8 2 49 6 90 10 41 4 82 8 90 10 8 1 40 6 70 10 30
4 64 9 75 11 11 3 38 7 60 10 39 5 178 29 221 38 12 2 39 7 60 10 22 4 55 11
74 16 19 5 50 12 67 15 18 3 89 19 158 35 330 78 695 193 1000 313 72 28 132
52 135 53 3 0 17 6 33 12 15 7 38 16 52 22 67 26 374 171 495 233 144 74 187
97 344 186 100 57 260 157 411 257 470 311 867 641 1274 1058 134 137 123 126
221 236 41 47 77 87 80 90 3 3 41 48 84 100 43 52 88 106 100 120 85 99 406
549 503 705 65 104 172 283 189 313 152 277 305 584 374 752 12 30 28 69 35
85 202 471 409 1179 479 1639 4 21 9 48 11 60 3 12 7 37 9 56 2 19 13 98 25
175 11 77 23 172 26 210 3 39 8 86 10 105 23 214 30 371 30 725 0 306 -4 439
-20 625 -9 113 -16 188 -20 220 -6 47 -14 118 -20 160 -3 19 -7 55 -10 80 -4
25 -8 56 -10 70 -2 14 -11 70 -20 125 -13 85 -66 354 -82 420 -2 11 -8 38 -13
61 -12 54 -59 242 -70 279 -6 17 -19 64 -31 105 -34 125 -121 394 -130 405 -5
5 -9 17 -9 27 0 9 -7 32 -15 50 -8 18 -26 65 -40 103 -40 106 -124 312 -156
383 -16 34 -29 65 -29 67 0 19 -211 436 -315 620 -28 51 -154 264 -171 290
-226 343 -313 467 -479 680 -80 102 -72 92 -233 280 -332 385 -701 738 -1076
1028 -56 43 -110 86 -121 95 -40 33 -243 177 -375 265 -120 80 -455 287 -465
287 -2 0 -28 14 -57 32 -29 17 -138 75 -243 128 -644 330 -1328 564 -2055 705
-14 3 -41 7 -60 11 -19 3 -55 9 -80 14 -25 5 -63 12 -85 15 -22 3 -53 7 -70
10 -16 2 -52 7 -79 10 -27 3 -52 8 -55 9 -3 2 -38 6 -76 10 -39 4 -81 8 -95
10 -29 5 -111 13 -220 21 -41 3 -102 8 -135 11 -69 6 -831 15 -836 10z m-1533
-1040 c187 -13 390 -82 557 -189 317 -204 626 -625 793 -1084 41 -113 114
-378 129 -466 3 -18 10 -59 16 -92 6 -33 13 -76 15 -95 2 -19 5 -44 8 -55 2
-11 7 -47 10 -80 4 -33 9 -80 11 -105 29 -271 24 -799 -10 -1055 -3 -22 -8
-60 -11 -85 -28 -222 -76 -448 -128 -605 -44 -131 -58 -159 -119 -248 -12 -18
-225 -163 -230 -156 -7 10 -33 76 -113 287 -47 125 -101 265 -119 312 -18 47
-110 288 -204 535 -93 248 -176 464 -182 480 -7 17 -13 32 -14 35 -1 3 -5 12
-8 20 -3 8 -16 41 -27 73 -12 31 -24 57 -26 57 -3 0 -19 -7 -35 -16 -22 -11
-29 -20 -24 -32 4 -9 110 -289 237 -622 126 -333 233 -614 239 -625 5 -11 54
-139 109 -285 l99 -265 -182 -90 c-100 -50 -215 -112 -255 -138 -40 -26 -78
-48 -83 -50 -5 -1 -70 81 -144 183 -73 102 -138 190 -142 195 -5 6 -38 51 -73
100 -36 50 -69 95 -73 100 -4 6 -47 64 -95 130 -48 66 -96 132 -107 147 -11
14 -27 36 -35 48 -8 12 -42 59 -75 104 -33 46 -215 297 -405 559 -190 262
-347 476 -350 477 -3 0 -17 -10 -32 -23 l-28 -22 321 -440 c176 -242 370 -510
432 -595 61 -85 138 -191 171 -236 34 -45 88 -120 122 -165 356 -491 431 -596
437 -605 4 -7 -20 -32 -56 -60 -34 -26 -132 -119 -217 -205 l-155 -158 -100
82 c-56 45 -118 96 -139 112 -21 17 -44 35 -50 40 -6 6 -31 26 -56 45 -25 19
-47 37 -50 40 -3 4 -84 69 -180 146 -96 76 -177 141 -180 144 -3 3 -27 24 -55
45 -27 22 -59 48 -70 57 -11 9 -157 127 -325 262 l-305 245 -27 -26 c-15 -15
-27 -27 -25 -29 1 -1 126 -101 277 -223 151 -122 282 -227 290 -234 8 -7 130
-104 270 -217 140 -113 264 -212 275 -222 11 -9 63 -51 115 -93 52 -41 102
-81 110 -88 8 -7 48 -39 88 -71 39 -32 72 -61 72 -65 0 -9 -167 -143 -199
-161 -58 -31 -146 -44 -301 -44 -92 0 -269 10 -320 18 -14 3 -47 8 -75 11 -85
12 -89 13 -125 19 -60 10 -91 16 -210 42 -63 14 -123 27 -133 29 -10 2 -27 7
-37 10 -10 3 -27 7 -37 9 -98 19 -456 135 -630 205 -164 65 -406 180 -518 245
-33 20 -67 39 -75 43 -8 3 -53 31 -100 61 -358 230 -661 540 -853 874 -79 138
-148 308 -171 423 -4 17 -9 41 -11 55 -23 111 -23 306 0 420 2 14 7 39 11 55
6 34 54 192 64 215 53 118 143 288 192 362 170 261 426 540 768 839 139 121
521 416 720 557 52 37 299 202 380 254 276 178 638 367 885 460 80 30 217 77
245 83 8 2 51 12 95 24 44 11 103 23 130 27 28 3 53 8 56 10 4 2 44 7 90 10
46 4 85 8 87 9 2 2 78 -2 188 -9z m4109 -9 c11 -3 40 -8 65 -12 25 -4 81 -16
125 -27 44 -11 88 -21 97 -23 9 -2 66 -20 125 -41 384 -132 826 -370 1328
-719 98 -68 395 -284 405 -295 3 -3 34 -27 70 -55 89 -68 138 -108 324 -270
591 -513 930 -994 1007 -1430 5 -33 12 -71 15 -85 5 -33 5 -245 -1 -290 -47
-344 -250 -705 -590 -1045 -77 -78 -189 -178 -250 -223 -60 -45 -115 -86 -122
-92 -7 -5 -15 -10 -18 -10 -3 0 -27 -15 -53 -33 -138 -97 -439 -250 -692 -352
-128 -52 -432 -157 -490 -170 -8 -2 -64 -17 -125 -33 -60 -17 -137 -36 -170
-43 -33 -7 -62 -13 -65 -14 -27 -6 -70 -15 -90 -19 -14 -3 -47 -9 -75 -15 -27
-5 -88 -15 -135 -21 -47 -6 -96 -13 -110 -16 -44 -7 -211 -17 -315 -17 -188
-1 -293 20 -350 72 -16 15 -60 51 -97 80 l-68 52 77 62 c42 34 91 73 109 87
27 21 387 310 449 362 35 28 151 122 190 153 69 54 569 457 627 505 l57 47
-27 26 -27 26 -150 -120 c-82 -66 -168 -135 -190 -153 -50 -42 -76 -62 -485
-391 -184 -148 -371 -299 -416 -335 -44 -36 -100 -81 -124 -100 -24 -19 -66
-54 -94 -77 l-51 -42 -150 152 c-82 84 -180 177 -217 206 -76 59 -75 48 -8
141 23 30 55 75 72 100 17 25 35 47 38 50 4 3 24 30 46 61 56 80 175 245 274
379 47 63 96 132 110 152 14 20 72 101 130 180 58 78 113 154 122 168 9 14 60
84 112 155 53 72 102 139 110 150 8 11 63 85 121 165 58 80 117 161 130 180
12 19 55 78 93 130 l70 95 -26 22 c-15 12 -29 22 -32 22 -3 0 -95 -124 -205
-276 -110 -151 -246 -339 -303 -417 -226 -311 -268 -369 -287 -396 -11 -15
-47 -65 -80 -110 -33 -45 -69 -95 -80 -110 -11 -16 -119 -165 -240 -331 -121
-166 -233 -320 -248 -343 -49 -70 -47 -70 -104 -31 -75 51 -110 70 -298 163
-93 46 -171 85 -173 87 -2 1 9 31 23 66 15 35 28 71 30 79 2 8 17 49 33 90 17
41 44 111 60 155 71 190 174 462 183 480 11 25 278 726 324 852 l34 93 -30 16
c-17 8 -33 13 -35 11 -5 -5 -69 -168 -113 -287 -45 -123 -122 -324 -131 -345
-5 -11 -39 -99 -75 -195 -37 -96 -83 -218 -103 -270 -20 -52 -37 -97 -38 -100
0 -3 -4 -12 -7 -20 -4 -8 -54 -141 -113 -295 -58 -154 -107 -282 -109 -284 -7
-6 -189 114 -222 147 -40 39 -80 117 -121 232 -30 85 -85 301 -96 374 -4 21
-8 41 -10 45 -2 3 -6 29 -10 56 -10 80 -16 128 -21 155 -3 14 -7 57 -11 95 -3
39 -8 79 -10 90 -24 126 -24 763 1 955 2 19 6 65 9 101 11 132 59 383 107 559
65 242 137 418 252 620 320 559 717 856 1187 886 52 4 96 7 97 8 3 2 228 -13
248 -17z m-1985 -4761 c19 -3 46 -8 60 -11 14 -3 51 -10 82 -15 31 -6 99 -23
150 -39 444 -133 816 -411 1069 -798 101 -154 224 -437 254 -584 45 -215 50
-263 49 -479 0 -157 -4 -206 -27 -325 -33 -178 -82 -326 -162 -491 -104 -215
-259 -424 -422 -571 -42 -37 -81 -73 -87 -78 -6 -6 -42 -33 -81 -61 -268 -196
-583 -321 -910 -362 -78 -9 -373 -9 -450 1 -218 27 -407 83 -603 177 -454 218
-799 597 -975 1070 -85 229 -112 391 -112 670 0 211 6 263 50 445 80 338 254
645 510 901 169 169 348 294 563 393 170 77 403 142 566 158 34 3 63 7 65 10
7 5 369 -4 411 -11z m-5235 -740 c55 -3 111 -8 125 -11 14 -2 48 -7 75 -10 91
-12 105 -14 223 -35 617 -109 1376 -415 1787 -720 164 -121 201 -171 240 -315
38 -140 38 -144 18 -143 -10 0 -81 -3 -158 -6 -77 -4 -176 -9 -220 -11 -44 -2
-132 -6 -195 -10 -63 -3 -160 -8 -215 -11 -55 -2 -131 -6 -170 -9 -38 -2 -133
-7 -210 -10 -77 -4 -170 -8 -208 -10 -37 -2 -129 -7 -205 -11 -75 -3 -157 -7
-182 -9 -25 -1 -69 -3 -99 -4 l-53 -1 6 -32 c8 -39 17 -46 64 -42 20 1 98 5
172 9 145 7 236 11 395 20 111 6 230 12 410 20 66 3 152 8 190 10 39 2 129 6
200 10 72 3 166 8 210 10 44 3 130 7 192 10 l111 6 6 -28 c7 -36 13 -75 21
-142 4 -30 8 -61 10 -70 1 -9 6 -38 9 -66 9 -64 42 -214 56 -249 5 -15 10 -29
10 -31 0 -4 -161 -57 -770 -255 -675 -219 -1057 -343 -1185 -385 -71 -24 -203
-67 -293 -95 -162 -52 -163 -53 -157 -79 10 -42 21 -46 72 -29 27 10 197 65
378 124 182 58 395 128 475 154 80 26 208 68 285 93 253 82 826 268 1015 329
102 33 189 61 193 62 5 0 20 -28 34 -64 24 -62 109 -237 195 -399 l38 -74 -72
-48 c-40 -26 -174 -114 -298 -195 -307 -201 -362 -237 -382 -249 -28 -16 -582
-379 -593 -387 -5 -5 -66 -45 -135 -89 -69 -45 -129 -85 -133 -89 -13 -12 21
-72 36 -64 17 11 254 165 372 243 55 36 104 68 110 71 5 3 83 54 173 113 90
59 209 138 265 174 56 36 165 107 242 158 384 252 436 285 443 285 8 0 90
-221 96 -260 10 -64 -38 -252 -108 -428 -253 -628 -792 -1370 -1297 -1782
-252 -206 -459 -329 -734 -435 -537 -208 -946 -200 -1340 27 -253 145 -534
467 -755 863 -126 225 -311 641 -405 910 -9 28 -21 59 -26 70 -42 98 -237 736
-269 880 -5 22 -14 60 -20 85 -15 58 -48 210 -60 275 -5 28 -11 61 -14 75 -12
66 -36 221 -41 270 -3 30 -8 75 -11 100 -20 174 -19 473 1 610 27 179 51 274
100 402 177 457 588 750 1240 883 142 29 169 33 297 41 56 3 104 7 105 8 4 4
226 -2 318 -8z m10401 0 c51 -4 100 -8 110 -10 11 -2 41 -7 67 -10 27 -4 56
-9 65 -11 345 -71 611 -172 813 -307 47 -31 118 -87 158 -124 69 -64 191 -204
191 -220 0 -4 6 -15 14 -23 27 -31 106 -200 137 -292 27 -84 55 -205 74 -324
13 -79 13 -499 0 -615 -19 -169 -22 -192 -49 -350 -54 -316 -153 -690 -295
-1120 -84 -250 -192 -544 -245 -664 -289 -651 -521 -1004 -832 -1266 -133
-112 -370 -238 -497 -264 -7 -2 -23 -6 -37 -9 -112 -29 -296 -39 -445 -24
-216 23 -534 122 -775 243 -163 81 -430 266 -580 400 -185 166 -450 452 -555
598 -11 16 -25 33 -30 40 -26 28 -170 232 -237 336 -283 435 -496 918 -500
1133 -1 51 6 83 43 180 24 64 47 117 51 117 4 0 53 -31 110 -68 93 -62 163
-108 209 -137 9 -5 29 -19 45 -30 16 -10 79 -51 139 -90 220 -143 561 -366
920 -602 211 -138 191 -129 210 -94 8 17 15 32 15 35 0 2 -37 28 -82 57 -46
29 -168 109 -273 177 -402 264 -489 321 -760 497 -143 94 -500 327 -503 330
-4 4 23 60 60 125 75 134 115 217 188 397 l10 23 52 -19 c29 -11 208 -70 398
-131 433 -140 989 -321 1140 -370 478 -157 799 -260 809 -260 11 0 31 40 31
60 0 5 -10 12 -22 15 -13 4 -203 65 -423 137 -220 71 -483 157 -585 190 -102
32 -279 90 -395 128 -115 38 -385 125 -598 195 -333 108 -388 129 -382 143 11
28 50 201 59 257 7 45 22 159 31 235 11 84 5 80 108 75 51 -2 137 -7 192 -9
55 -3 152 -8 215 -11 63 -2 153 -7 200 -10 47 -3 135 -8 195 -10 61 -2 148 -6
195 -9 47 -3 141 -8 210 -11 69 -3 161 -8 205 -10 44 -3 134 -7 200 -10 66 -3
141 -7 166 -9 25 -3 51 -1 57 2 14 9 26 58 15 65 -8 5 -92 10 -338 22 -55 3
-143 7 -195 10 -278 14 -455 23 -620 30 -58 2 -143 7 -190 10 -101 6 -453 23
-567 28 -17 0 -16 12 3 78 9 30 17 59 18 64 21 106 73 183 179 268 34 26 75
59 91 72 112 88 472 278 741 390 216 90 587 213 755 250 8 2 56 12 105 24 50
11 104 22 120 25 17 3 40 8 52 10 11 3 43 8 70 12 26 3 55 8 63 9 8 2 40 6 70
10 30 3 66 8 80 10 14 3 70 7 125 10 55 4 100 7 102 8 4 5 245 -1 329 -7z
m-6188 -3557 c29 -1 54 -5 57 -9 2 -4 -7 -43 -20 -86 -13 -43 -24 -80 -25 -82
0 -9 -19 -83 -67 -257 -30 -110 -56 -207 -58 -215 -2 -8 -49 -184 -105 -390
-56 -206 -104 -382 -106 -390 -2 -8 -13 -49 -24 -90 -11 -41 -22 -82 -25 -91
-2 -10 -17 -67 -34 -128 -30 -106 -38 -151 -25 -139 3 4 19 2 35 -2 16 -5 29
-7 29 -4 0 2 36 136 80 298 44 161 82 302 85 312 2 11 45 170 95 354 50 184
102 376 115 425 105 392 131 480 145 479 13 0 115 -15 130 -19 4 -1 67 -12
110 -20 110 -19 168 -26 253 -30 43 -1 80 -5 83 -8 3 -3 6 -574 7 -1269 l2
-1263 28 1 c15 1 31 2 36 3 6 0 9 508 9 1262 0 693 2 1262 5 1265 2 3 43 7 91
9 47 3 116 9 153 15 38 6 82 13 98 16 17 2 53 9 80 14 107 21 160 28 166 22 4
-4 21 -63 39 -132 17 -69 36 -136 40 -150 5 -14 23 -78 39 -142 17 -65 37
-142 46 -172 9 -29 17 -62 20 -72 2 -11 26 -100 53 -199 27 -99 64 -234 82
-300 17 -66 36 -133 41 -150 14 -45 120 -437 124 -460 12 -68 21 -80 56 -80
28 0 34 4 33 20 -2 21 -11 70 -14 70 -1 0 -3 7 -5 16 -1 9 -17 68 -34 130 -17
63 -63 231 -101 374 -88 324 -111 408 -154 565 -18 69 -57 213 -86 320 -29
107 -60 224 -70 260 -36 131 -39 120 27 121 241 5 224 7 305 -34 214 -105 557
-415 828 -747 25 -30 47 -57 50 -60 3 -3 42 -52 86 -110 429 -561 706 -1140
783 -1640 27 -176 39 -433 27 -576 -8 -91 -18 -179 -21 -184 -2 -3 -6 -21 -9
-40 -8 -55 -54 -205 -82 -273 -61 -144 -142 -265 -254 -377 -83 -84 -98 -97
-171 -152 -35 -26 -216 -138 -224 -138 -2 0 -43 -18 -91 -40 -144 -67 -378
-143 -544 -176 -14 -3 -52 -11 -85 -18 -33 -8 -82 -17 -110 -22 -27 -4 -57 -9
-65 -10 -26 -5 -162 -24 -215 -30 -27 -3 -63 -7 -80 -9 -16 -2 -66 -7 -110
-11 -44 -3 -93 -8 -110 -10 -205 -24 -1080 -24 -1355 1 -101 9 -187 17 -215
20 -16 2 -57 6 -90 10 -53 5 -114 14 -220 31 -28 4 -94 16 -160 29 -16 4 -39
8 -50 10 -91 14 -366 96 -493 146 -153 61 -353 173 -452 254 -114 93 -239 236
-307 353 -90 152 -158 385 -178 605 -6 59 -6 357 -1 387 3 14 7 61 11 105 3
44 8 87 10 95 2 8 6 33 10 55 3 22 7 47 10 55 2 8 6 26 9 40 42 243 229 695
410 994 36 60 66 111 66 112 0 3 27 43 160 238 54 79 249 330 305 392 5 6 39
44 75 85 202 229 466 465 632 565 108 66 160 82 247 78 42 -1 100 -4 129 -5z"/>
<path d="M16137 17194 c-1 -1 -24 -4 -52 -7 -107 -13 -252 -58 -343 -108 -360
-198 -558 -583 -510 -990 35 -296 212 -568 473 -725 350 -210 803 -178 1123
81 362 292 469 792 260 1210 -22 44 -44 82 -49 83 -5 2 -9 8 -9 14 0 36 -184
223 -278 282 -97 61 -222 116 -300 131 -12 2 -26 6 -30 9 -17 11 -274 29 -285
20z"/>
</g>
</svg>
